G04*
G04 #@! TF.GenerationSoftware,Altium Limited,Altium Designer,22.7.1 (60)*
G04*
G04 Layer_Color=16711935*
%FSLAX25Y25*%
%MOIN*%
G70*
G04*
G04 #@! TF.SameCoordinates,1362A066-ECE3-457F-9539-8A17BD865AD3*
G04*
G04*
G04 #@! TF.FilePolarity,Negative*
G04*
G01*
G75*
%ADD32R,0.03150X0.03937*%
%ADD34R,0.03937X0.03150*%
%ADD35R,0.03150X0.05512*%
%ADD36R,0.04194X0.03494*%
%ADD38R,0.03494X0.04194*%
%ADD39R,0.01575X0.01575*%
%ADD45C,0.08268*%
%ADD46C,0.03937*%
%ADD59R,0.04528X0.02953*%
%ADD60R,0.06693X0.03937*%
%ADD61R,0.06693X0.13386*%
%ADD62R,0.06693X0.05118*%
D32*
X110531Y46949D02*
D03*
X116437D02*
D03*
X129626Y15354D02*
D03*
X123721D02*
D03*
D34*
X96457Y21654D02*
D03*
Y15748D02*
D03*
Y31496D02*
D03*
Y25591D02*
D03*
X109153Y36024D02*
D03*
Y41929D02*
D03*
D35*
X121850Y33858D02*
D03*
X129331D02*
D03*
X116437Y29724D02*
D03*
X108957D02*
D03*
D36*
X115650Y22244D02*
D03*
X109350D02*
D03*
D38*
X144685Y35236D02*
D03*
Y41536D02*
D03*
X72441Y7972D02*
D03*
Y14272D02*
D03*
X60630Y23622D02*
D03*
Y29922D02*
D03*
X64961Y50788D02*
D03*
Y44488D02*
D03*
X113386Y41634D02*
D03*
Y35334D02*
D03*
D39*
X144488Y29528D02*
D03*
X146850D02*
D03*
D45*
X79646Y53150D02*
D03*
X89646D02*
D03*
X111772D02*
D03*
X121772D02*
D03*
X131772D02*
D03*
X141772D02*
D03*
X163150Y10276D02*
D03*
Y20276D02*
D03*
Y30276D02*
D03*
Y40276D02*
D03*
Y50276D02*
D03*
X153150Y10276D02*
D03*
Y20276D02*
D03*
Y30276D02*
D03*
Y40276D02*
D03*
Y50276D02*
D03*
D46*
X19685Y36220D02*
D03*
Y18898D02*
D03*
D59*
X54429Y6398D02*
D03*
X66831D02*
D03*
X54429Y14862D02*
D03*
X66831D02*
D03*
D60*
X70866Y55315D02*
D03*
Y43898D02*
D03*
X66535Y25787D02*
D03*
Y37205D02*
D03*
D61*
X33465Y44488D02*
D03*
D62*
X58661Y35433D02*
D03*
Y44488D02*
D03*
Y53543D02*
D03*
M02*
