G04*
G04 #@! TF.GenerationSoftware,Altium Limited,Altium Designer,22.7.1 (60)*
G04*
G04 Layer_Physical_Order=2*
G04 Layer_Color=16711680*
%FSLAX25Y25*%
%MOIN*%
G70*
G04*
G04 #@! TF.SameCoordinates,1362A066-ECE3-457F-9539-8A17BD865AD3*
G04*
G04*
G04 #@! TF.FilePolarity,Positive*
G04*
G01*
G75*
%ADD10C,0.00984*%
%ADD16R,0.02756X0.03543*%
%ADD18R,0.03543X0.02756*%
%ADD19R,0.02756X0.05118*%
%ADD20R,0.03800X0.03100*%
%ADD22R,0.03100X0.03800*%
%ADD23R,0.01181X0.01181*%
%ADD47C,0.01102*%
%ADD50C,0.07874*%
%ADD51C,0.03543*%
%ADD52C,0.00984*%
%ADD53R,0.04134X0.02559*%
%ADD54R,0.06299X0.03543*%
%ADD55R,0.06299X0.12992*%
%ADD56R,0.06299X0.04724*%
%ADD57C,0.01181*%
%ADD58C,0.02756*%
G36*
X118670Y57271D02*
X118760Y56819D01*
X117991Y56050D01*
X117369Y54973D01*
X117047Y53772D01*
Y52528D01*
X117298Y51590D01*
X116854Y50803D01*
X115303D01*
X114996Y50742D01*
X114736Y50568D01*
X114180Y50011D01*
X114159Y50000D01*
X114080Y49930D01*
X113993Y49872D01*
X113409Y49288D01*
X113235Y49028D01*
X113173Y48720D01*
X113173Y45294D01*
X113173Y45294D01*
X113235Y44987D01*
X113409Y44727D01*
X113409Y44727D01*
X114168Y43968D01*
X114168Y43968D01*
X114428Y43794D01*
X114735Y43733D01*
X117665D01*
X117973Y43794D01*
X118233Y43968D01*
X118233Y43968D01*
X119761Y45495D01*
X119935Y45756D01*
X119996Y46063D01*
Y48088D01*
X120620Y48567D01*
X121150Y48425D01*
X122394D01*
X123595Y48747D01*
X124672Y49369D01*
X125552Y50249D01*
X126174Y51326D01*
X126364Y52035D01*
X127179D01*
X127369Y51326D01*
X127991Y50249D01*
X128871Y49369D01*
X129948Y48747D01*
X131150Y48425D01*
X132394D01*
X133595Y48747D01*
X134672Y49369D01*
X135221Y49917D01*
X136008Y49591D01*
Y45276D01*
X136069Y44968D01*
X136243Y44708D01*
X143133Y37818D01*
X143394Y37644D01*
X143701Y37583D01*
X147305D01*
X150023Y34865D01*
X150047Y34849D01*
X150144Y34469D01*
X150160Y34115D01*
X150119Y33926D01*
X149369Y33176D01*
X148747Y32099D01*
X148597Y31540D01*
X148228Y30906D01*
X143110D01*
X143097Y31688D01*
Y33465D01*
X142993Y33987D01*
X142697Y34430D01*
X130453Y46674D01*
X130010Y46970D01*
X129488Y47074D01*
X124942D01*
X124420Y46970D01*
X123977Y46674D01*
X123681Y46231D01*
X123577Y45709D01*
X123681Y45186D01*
X123977Y44744D01*
X124420Y44448D01*
X124942Y44344D01*
X128923D01*
X134180Y39086D01*
X134009Y38145D01*
X133919Y38085D01*
X133065Y37231D01*
X132211D01*
X130489Y38954D01*
X130228Y39128D01*
X129921Y39189D01*
X126969D01*
X126969Y39189D01*
X126661Y39128D01*
X126401Y38954D01*
X124432Y36985D01*
X124258Y36725D01*
X124197Y36417D01*
Y32480D01*
X124258Y32173D01*
X124432Y31913D01*
X124548Y31797D01*
X124247Y31069D01*
X121831D01*
X121308Y30966D01*
X120866Y30670D01*
X115900Y25704D01*
X115604Y25261D01*
X115500Y24739D01*
X115604Y24217D01*
X115900Y23774D01*
X116343Y23478D01*
X116865Y23374D01*
X117387Y23478D01*
X117830Y23774D01*
X122396Y28340D01*
X123526D01*
X123612Y28213D01*
X123660Y27312D01*
X108085Y11738D01*
X95866D01*
X95740Y11713D01*
X95612D01*
X95493Y11663D01*
X95367Y11638D01*
X95260Y11567D01*
X95141Y11518D01*
X95051Y11427D01*
X94944Y11356D01*
X94872Y11249D01*
X94781Y11158D01*
X94732Y11039D01*
X94661Y10932D01*
X94636Y10806D01*
X94587Y10688D01*
Y10559D01*
X94561Y10433D01*
X94587Y10307D01*
Y10179D01*
X94636Y10060D01*
X94661Y9934D01*
X94732Y9827D01*
X94781Y9708D01*
X94839Y9651D01*
X94605Y9302D01*
X94501Y8779D01*
X94567Y8451D01*
X94236Y7859D01*
X94055Y7664D01*
X89542D01*
X84101Y13105D01*
Y30453D01*
X83997Y30975D01*
X83701Y31418D01*
X79022Y36097D01*
Y38484D01*
X78918Y39007D01*
X78623Y39449D01*
X78180Y39745D01*
X77658Y39849D01*
X77135Y39745D01*
X76556Y39548D01*
X76113Y39844D01*
X75757Y39914D01*
X75245Y40620D01*
X75414Y41099D01*
X97622D01*
Y34267D01*
X93504D01*
X93504Y34267D01*
X93197Y34206D01*
X92936Y34032D01*
X91952Y33048D01*
X91778Y32787D01*
X91717Y32480D01*
Y30512D01*
X91717Y30512D01*
X91778Y30205D01*
X91952Y29944D01*
X92936Y28960D01*
X93197Y28786D01*
X93452Y28735D01*
X93525Y28640D01*
X93532Y28628D01*
X93731Y27937D01*
X92936Y27143D01*
X92936Y27143D01*
X92762Y26882D01*
X92701Y26575D01*
Y20669D01*
X92701Y20669D01*
X92762Y20362D01*
X92936Y20102D01*
X93920Y19117D01*
X94181Y18943D01*
X94488Y18882D01*
X98282D01*
X99429Y17736D01*
X99871Y17440D01*
X100394Y17336D01*
X107702D01*
X107991Y17047D01*
X108434Y16751D01*
X108956Y16648D01*
X109478Y16751D01*
X109921Y17047D01*
X110217Y17490D01*
X110321Y18012D01*
X110217Y18535D01*
X109921Y18978D01*
X109795Y19104D01*
X110121Y19891D01*
X111250D01*
X111328Y19907D01*
X112037D01*
Y20617D01*
X112053Y20694D01*
Y31496D01*
X112093Y31698D01*
X112321Y32029D01*
X112373Y32082D01*
X112628Y32268D01*
X115354D01*
X115662Y32329D01*
X115922Y32503D01*
X116709Y33291D01*
X116883Y33551D01*
X116945Y33858D01*
Y37402D01*
X116883Y37709D01*
X116709Y37969D01*
X115922Y38757D01*
X115662Y38931D01*
X115354Y38992D01*
X107874D01*
X107705Y38958D01*
X107505Y39076D01*
X107336Y39228D01*
X107082Y39554D01*
X107102Y39655D01*
Y44291D01*
X107102Y44291D01*
X107041Y44599D01*
X106867Y44859D01*
X105883Y45843D01*
X105883Y45843D01*
X105622Y46017D01*
X105315Y46078D01*
X99410D01*
X99410Y46078D01*
X99102Y46017D01*
X98842Y45843D01*
X98513Y45515D01*
X76590D01*
Y46260D01*
X76529Y46567D01*
X76355Y46828D01*
X76355Y46828D01*
X74692Y48491D01*
X74431Y48665D01*
X74124Y48726D01*
X58845D01*
Y50000D01*
X58741Y50522D01*
X58445Y50965D01*
X58003Y51261D01*
X57480Y51365D01*
X56958Y51261D01*
X56515Y50965D01*
X56219Y50522D01*
X56116Y50000D01*
Y48726D01*
X42960D01*
X41417Y50270D01*
X41345Y51169D01*
X41649Y51625D01*
X41756Y52162D01*
X41649Y52700D01*
X41345Y53156D01*
X40358Y54143D01*
X39902Y54448D01*
X39364Y54555D01*
X29528D01*
X28990Y54448D01*
X28534Y54143D01*
X25581Y51190D01*
X25277Y50735D01*
X25170Y50197D01*
Y37402D01*
X25277Y36864D01*
X25581Y36408D01*
X27550Y34440D01*
X28006Y34135D01*
X28543Y34028D01*
X50378D01*
Y31879D01*
X37421Y18922D01*
X37125Y18479D01*
X37021Y17957D01*
Y8268D01*
X37125Y7745D01*
X37421Y7303D01*
X39819Y4905D01*
X40261Y4609D01*
X40784Y4505D01*
X44469D01*
X44991Y4609D01*
X45434Y4905D01*
X49105Y8576D01*
X50507D01*
X50808Y7849D01*
X50613Y7654D01*
X50439Y7394D01*
X50378Y7087D01*
Y4724D01*
X50378Y4724D01*
X50439Y4417D01*
X50613Y4157D01*
X50613Y4157D01*
X51590Y3181D01*
X51263Y2393D01*
X5481D01*
X2393Y5481D01*
Y53574D01*
X6426Y57607D01*
X63021D01*
X63098Y56819D01*
X62863Y56773D01*
X62421Y56477D01*
X62125Y56034D01*
X62021Y55512D01*
Y54893D01*
X61731Y54459D01*
X61627Y53937D01*
X61731Y53415D01*
X62027Y52972D01*
X62470Y52676D01*
X62992Y52572D01*
X63514Y52676D01*
X63957Y52972D01*
X64351Y53366D01*
X64647Y53808D01*
X64751Y54331D01*
Y55512D01*
X64647Y56034D01*
X64351Y56477D01*
X63908Y56773D01*
X63673Y56819D01*
X63751Y57607D01*
X76347D01*
X76544Y57271D01*
X76634Y56819D01*
X75865Y56050D01*
X75243Y54973D01*
X74921Y53772D01*
Y52528D01*
X75243Y51326D01*
X75865Y50249D01*
X76745Y49369D01*
X77822Y48747D01*
X79024Y48425D01*
X80268D01*
X81469Y48747D01*
X82547Y49369D01*
X83426Y50249D01*
X84048Y51326D01*
X84238Y52035D01*
X85053D01*
X85243Y51326D01*
X85865Y50249D01*
X86745Y49369D01*
X87822Y48747D01*
X89024Y48425D01*
X90268D01*
X91469Y48747D01*
X92546Y49369D01*
X93426Y50249D01*
X94048Y51326D01*
X94370Y52528D01*
Y53772D01*
X94048Y54973D01*
X93426Y56050D01*
X92657Y56819D01*
X92747Y57271D01*
X92944Y57607D01*
X118473D01*
X118670Y57271D01*
D02*
G37*
G36*
X119193Y48917D02*
Y46063D01*
X117665Y44535D01*
X114735D01*
X113976Y45294D01*
X113976Y48720D01*
X114560Y49304D01*
X114673Y49369D01*
X115303Y50000D01*
X118110D01*
X119193Y48917D01*
D02*
G37*
G36*
X39358Y51169D02*
X39431Y51120D01*
X42628Y47923D01*
X56116D01*
Y45669D01*
X56219Y45147D01*
X56515Y44704D01*
X57696Y43523D01*
X58139Y43227D01*
X58661Y43123D01*
X59184Y43227D01*
X59627Y43523D01*
X59922Y43966D01*
X60026Y44488D01*
X59922Y45011D01*
X59627Y45453D01*
X58845Y46235D01*
Y47923D01*
X74124D01*
X75787Y46260D01*
Y45515D01*
X71457D01*
X70612Y45347D01*
X69896Y44868D01*
X69417Y44152D01*
X69249Y43307D01*
X69417Y42462D01*
X69834Y41839D01*
X69674Y41339D01*
X42323D01*
X38386Y37402D01*
X30512D01*
X28543Y39370D01*
Y50178D01*
X30110Y51745D01*
X38782D01*
X39358Y51169D01*
D02*
G37*
G36*
X146653Y56102D02*
Y47244D01*
X148622Y45276D01*
X166339D01*
X168307Y43307D01*
Y37402D01*
X166339Y35433D01*
X150591D01*
X147638Y38386D01*
X143701D01*
X136811Y45276D01*
Y56102D01*
X138315Y57607D01*
X145149D01*
X146653Y56102D01*
D02*
G37*
G36*
X116142Y37402D02*
Y33858D01*
X115354Y33071D01*
X108268D01*
X106693Y34646D01*
Y37008D01*
X107874Y38189D01*
X115354D01*
X116142Y37402D01*
D02*
G37*
G36*
X131890Y36417D02*
Y32480D01*
X130213Y30804D01*
X129971Y30966D01*
X129449Y31069D01*
X126411D01*
X125000Y32480D01*
Y36417D01*
X126969Y38386D01*
X129921D01*
X131890Y36417D01*
D02*
G37*
G36*
X140367Y32899D02*
Y5709D01*
X140471Y5186D01*
X140767Y4744D01*
X141210Y4448D01*
X141732Y4344D01*
X142255Y4448D01*
X142697Y4744D01*
X142993Y5186D01*
X143097Y5709D01*
Y10971D01*
X143885Y11392D01*
X143966Y11338D01*
X144488Y11234D01*
X145010Y11338D01*
X145453Y11633D01*
X145749Y12076D01*
X145853Y12598D01*
X145749Y13121D01*
X145453Y13564D01*
X145262Y13754D01*
Y15504D01*
X145965Y16155D01*
X146487Y16259D01*
X146930Y16555D01*
X147225Y16997D01*
X147329Y17520D01*
Y26083D01*
X147225Y26605D01*
X146930Y27048D01*
X146615Y27362D01*
X146642Y27512D01*
X146814Y27936D01*
X146967Y28123D01*
X148937D01*
X149369Y27375D01*
X150249Y26495D01*
X151326Y25873D01*
X152528Y25551D01*
X153772D01*
X154973Y25873D01*
X156051Y26495D01*
X156930Y27375D01*
X157552Y28452D01*
X157742Y29161D01*
X158557D01*
X158747Y28452D01*
X159369Y27375D01*
X160249Y26495D01*
X161326Y25873D01*
X162528Y25551D01*
X163772D01*
X164973Y25873D01*
X166051Y26495D01*
X166930Y27375D01*
X167552Y28452D01*
X167874Y29654D01*
Y30898D01*
X167552Y32099D01*
X166930Y33176D01*
X166264Y33843D01*
X166296Y34182D01*
X166481Y34635D01*
X166502Y34663D01*
X166646Y34691D01*
X166906Y34865D01*
X166906Y34865D01*
X168021Y35980D01*
X168749Y35679D01*
Y3394D01*
X167747Y2393D01*
X127006D01*
X126704Y3121D01*
X134233Y10649D01*
X134529Y11092D01*
X134633Y11614D01*
Y25886D01*
X134529Y26408D01*
X134233Y26851D01*
X131359Y29724D01*
X131496Y30512D01*
D01*
X131742Y31197D01*
X132457Y31913D01*
X132632Y32173D01*
X132693Y32480D01*
Y34501D01*
X133630D01*
X134153Y34605D01*
X134595Y34901D01*
X135849Y36155D01*
X135909Y36244D01*
X136851Y36416D01*
X140367Y32899D01*
D02*
G37*
G36*
X76884Y29060D02*
X76499Y28339D01*
X76490Y28335D01*
X76452Y28343D01*
X75930Y28239D01*
X75487Y27943D01*
X69578Y22034D01*
X65059D01*
X64537Y21930D01*
X64094Y21634D01*
X63798Y21192D01*
X63694Y20669D01*
X63280Y20164D01*
X51575D01*
X51052Y20060D01*
X50610Y19764D01*
X40767Y9922D01*
X40538Y9579D01*
X40151Y9582D01*
X39751Y9710D01*
Y17391D01*
X50966Y28607D01*
X52582Y26991D01*
X52842Y26817D01*
X53150Y26756D01*
X61717D01*
X61717Y26756D01*
X62025Y26817D01*
X62285Y26991D01*
X62528Y27234D01*
X62967D01*
Y27674D01*
X64018Y28725D01*
X69882D01*
X69882Y28725D01*
X70189Y28786D01*
X70450Y28960D01*
X72418Y30928D01*
X72592Y31189D01*
X72653Y31496D01*
Y32262D01*
X73381Y32563D01*
X76884Y29060D01*
D02*
G37*
G36*
X71850Y38189D02*
X71850Y31496D01*
X69882Y29528D01*
X63686D01*
X61717Y27559D01*
X53150D01*
X51181Y29528D01*
Y38386D01*
X53150Y40354D01*
X69685D01*
X71850Y38189D01*
D02*
G37*
G36*
X131903Y25321D02*
Y12179D01*
X123608Y3885D01*
X111311D01*
X110617Y4429D01*
X110513Y4951D01*
X110217Y5394D01*
X109774Y5690D01*
X109252Y5794D01*
X104049D01*
X103700Y6581D01*
X103820Y6761D01*
X103924Y7283D01*
X104032Y7415D01*
X109310D01*
X109832Y7519D01*
X110275Y7814D01*
X119694Y17233D01*
X119829Y17214D01*
X120457Y16883D01*
X120457Y13700D01*
X120457Y13700D01*
X120518Y13393D01*
X120692Y13132D01*
X120692Y13132D01*
X121451Y12373D01*
X121451Y12373D01*
X121712Y12199D01*
X122019Y12138D01*
X124949D01*
X125256Y12199D01*
X125516Y12373D01*
X125516Y12373D01*
X127044Y13901D01*
X127218Y14161D01*
X127279Y14469D01*
Y17323D01*
X127218Y17630D01*
X127044Y17890D01*
X125961Y18973D01*
X125701Y19147D01*
X125394Y19208D01*
X122783D01*
X122451Y19836D01*
X122432Y19971D01*
X125079Y22618D01*
X125163D01*
X125492Y22553D01*
X126014Y22656D01*
X126457Y22952D01*
X126753Y23395D01*
X126857Y23917D01*
X126781Y24298D01*
X127195Y25083D01*
X127197Y25085D01*
X127696Y25185D01*
X128119Y25467D01*
X128285Y25633D01*
X128356Y25739D01*
X128447Y25830D01*
X128496Y25949D01*
X128568Y26056D01*
X128593Y26182D01*
X128642Y26301D01*
Y26429D01*
X128667Y26555D01*
X128642Y26681D01*
Y26810D01*
X128593Y26928D01*
X128568Y27054D01*
X128496Y27161D01*
X128474Y27214D01*
X128474Y27376D01*
X128586Y27763D01*
X128693Y27947D01*
X128780Y28046D01*
X129132Y28091D01*
X131903Y25321D01*
D02*
G37*
G36*
X106299Y44291D02*
Y39655D01*
X103347Y36702D01*
X103347Y33465D01*
X106739D01*
X107700Y32503D01*
X107960Y32329D01*
X108268Y32268D01*
X110773D01*
X111250Y31496D01*
Y20694D01*
X107450D01*
X106299Y21845D01*
X106299Y27559D01*
X104331Y29528D01*
X93504D01*
X92520Y30512D01*
Y32480D01*
X93504Y33465D01*
X98425D01*
Y44291D01*
X99410Y45276D01*
X105315D01*
X106299Y44291D01*
D02*
G37*
G36*
X98425Y27559D02*
X99410Y26575D01*
Y20669D01*
X98425Y19685D01*
X94488D01*
X93504Y20669D01*
Y26575D01*
X94488Y27559D01*
X95472D01*
X98425Y27559D01*
D02*
G37*
G36*
X126476Y17323D02*
Y14469D01*
X124949Y12941D01*
X122019D01*
X121260Y13700D01*
X121260Y17126D01*
X122539Y18406D01*
X125394D01*
X126476Y17323D01*
D02*
G37*
G36*
X75590Y15748D02*
Y12992D01*
X74213Y11614D01*
X52756D01*
X51181Y13189D01*
Y15551D01*
X52756Y17126D01*
X74213D01*
X75590Y15748D01*
D02*
G37*
G36*
X79875Y20188D02*
Y11378D01*
X79979Y10856D01*
X80275Y10413D01*
X86076Y4612D01*
X85775Y3885D01*
X70808D01*
X70094Y4331D01*
Y7480D01*
X70094Y7480D01*
X70033Y7788D01*
X69859Y8048D01*
X69859Y8048D01*
X69685Y8222D01*
Y8465D01*
X69442D01*
X68678Y9229D01*
X68418Y9403D01*
X68110Y9464D01*
X58320D01*
X57903Y10107D01*
X58399Y10811D01*
X74213D01*
X74520Y10872D01*
X74780Y11046D01*
X76158Y12424D01*
X76158Y12424D01*
X76332Y12685D01*
X76393Y12992D01*
Y15748D01*
X76393Y15748D01*
X76332Y16055D01*
X76158Y16316D01*
X75776Y16698D01*
X75957Y17505D01*
X76015Y17572D01*
X76408Y17834D01*
X79088Y20515D01*
X79875Y20188D01*
D02*
G37*
G36*
X69291Y7480D02*
Y4331D01*
X68110Y3150D01*
X52756D01*
X51181Y4724D01*
Y7087D01*
X52671Y8576D01*
X56496D01*
X56925Y8661D01*
X68110D01*
X69291Y7480D01*
D02*
G37*
%LPC*%
G36*
X20022Y38780D02*
X19348D01*
X18697Y38605D01*
X18114Y38268D01*
X17637Y37792D01*
X17300Y37208D01*
X17126Y36557D01*
Y35884D01*
X17300Y35233D01*
X17637Y34649D01*
X18114Y34173D01*
X18697Y33836D01*
X19348Y33661D01*
X20022D01*
X20673Y33836D01*
X21256Y34173D01*
X21733Y34649D01*
X22070Y35233D01*
X22244Y35884D01*
Y36557D01*
X22070Y37208D01*
X21733Y37792D01*
X21256Y38268D01*
X20673Y38605D01*
X20022Y38780D01*
D02*
G37*
G36*
Y21457D02*
X19348D01*
X18697Y21282D01*
X18114Y20945D01*
X17637Y20469D01*
X17300Y19885D01*
X17126Y19234D01*
Y18561D01*
X17300Y17910D01*
X17637Y17326D01*
X18114Y16850D01*
X18697Y16513D01*
X19348Y16339D01*
X20022D01*
X20673Y16513D01*
X21256Y16850D01*
X21733Y17326D01*
X22070Y17910D01*
X22244Y18561D01*
Y19234D01*
X22070Y19885D01*
X21733Y20469D01*
X21256Y20945D01*
X20673Y21282D01*
X20022Y21457D01*
D02*
G37*
G36*
X163772Y15000D02*
X162528D01*
X161326Y14678D01*
X160249Y14056D01*
X159369Y13176D01*
X158747Y12099D01*
X158557Y11390D01*
X157742D01*
X157552Y12099D01*
X156930Y13176D01*
X156051Y14056D01*
X154973Y14678D01*
X153772Y15000D01*
X152528D01*
X151326Y14678D01*
X150249Y14056D01*
X149369Y13176D01*
X148747Y12099D01*
X148425Y10898D01*
Y9654D01*
X148747Y8452D01*
X149369Y7375D01*
X150249Y6495D01*
X151326Y5873D01*
X152528Y5551D01*
X153772D01*
X154973Y5873D01*
X156051Y6495D01*
X156930Y7375D01*
X157552Y8452D01*
X157742Y9161D01*
X158557D01*
X158747Y8452D01*
X159369Y7375D01*
X160249Y6495D01*
X161326Y5873D01*
X162528Y5551D01*
X163772D01*
X164973Y5873D01*
X166051Y6495D01*
X166930Y7375D01*
X167552Y8452D01*
X167874Y9654D01*
Y10898D01*
X167552Y12099D01*
X166930Y13176D01*
X166051Y14056D01*
X164973Y14678D01*
X163772Y15000D01*
D02*
G37*
%LPD*%
D10*
X95866Y10433D02*
X108625D01*
X124582Y26390D01*
X127197D01*
X127362Y26555D01*
D16*
X110531Y46949D02*
D03*
X116437D02*
D03*
X129626Y15354D02*
D03*
X123721D02*
D03*
D18*
X96457Y21654D02*
D03*
Y15748D02*
D03*
Y31496D02*
D03*
Y25591D02*
D03*
X109153Y36024D02*
D03*
Y41929D02*
D03*
D19*
X121850Y33858D02*
D03*
X129331D02*
D03*
X116437Y29724D02*
D03*
X108957D02*
D03*
D20*
X115650Y22244D02*
D03*
X109350D02*
D03*
D22*
X144685Y35236D02*
D03*
Y41536D02*
D03*
X72441Y7972D02*
D03*
Y14272D02*
D03*
X60630Y23622D02*
D03*
Y29922D02*
D03*
X64961Y50788D02*
D03*
Y44488D02*
D03*
X113386Y41634D02*
D03*
Y35334D02*
D03*
D23*
X144488Y29528D02*
D03*
X146850D02*
D03*
D47*
X65059Y20669D02*
X70143D01*
X76452Y26978D01*
X61910Y18799D02*
X75442D01*
X78642Y21998D01*
X116865Y24739D02*
X121831Y29705D01*
X57087Y35433D02*
X59055Y37402D01*
X62992Y53937D02*
X63386Y54331D01*
Y55512D01*
X44469Y5870D02*
X48539Y9941D01*
X40784Y5870D02*
X44469D01*
X48539Y9941D02*
X56496D01*
X38386Y8268D02*
X40784Y5870D01*
X38386Y17957D02*
X55862Y35433D01*
X57087D01*
X38386Y8268D02*
Y17957D01*
X41732Y8957D02*
X51575Y18799D01*
X61910D01*
X133268Y11614D02*
Y25886D01*
X124173Y2520D02*
X133268Y11614D01*
X68346Y2520D02*
X124173D01*
X95866Y8779D02*
X109310D01*
X124513Y23983D01*
X88189Y4429D02*
X109252D01*
X125427Y23983D02*
X125492Y23917D01*
X124513Y23983D02*
X125427D01*
X121831Y29705D02*
X129449D01*
X101575Y6299D02*
X102559Y7283D01*
X129449Y29705D02*
X133268Y25886D01*
X108268Y18701D02*
X108956Y18012D01*
X88976Y6299D02*
X101575D01*
X82736Y12539D02*
X88976Y6299D01*
X82736Y12539D02*
Y30453D01*
X81240Y11378D02*
X88189Y4429D01*
X81240Y11378D02*
Y29685D01*
X73465Y34409D02*
X78642Y29232D01*
Y21998D02*
Y29232D01*
X73465Y34409D02*
Y42677D01*
X72835Y43307D02*
X73465Y42677D01*
X75590Y35335D02*
Y38583D01*
Y35335D02*
X81240Y29685D01*
X77658Y35531D02*
X82736Y30453D01*
X77658Y35531D02*
Y38484D01*
X70866Y43898D02*
X71457Y43307D01*
X129331Y35039D02*
X130157Y35866D01*
X133630D02*
X134884Y37120D01*
X129331Y33858D02*
Y35039D01*
X130157Y35866D02*
X133630D01*
X141732Y5709D02*
Y33465D01*
X124942Y45709D02*
X129488D01*
X141732Y33465D01*
X57480Y45669D02*
Y50000D01*
Y45669D02*
X58661Y44488D01*
X98268Y20827D02*
X100394Y18701D01*
X108268D01*
X96457Y21654D02*
X97284Y20827D01*
X98268D01*
X108563Y21457D02*
X109350Y22244D01*
X108563Y21260D02*
Y21457D01*
X145965Y17520D02*
Y26083D01*
X144488Y27559D02*
X145965Y26083D01*
X143898Y13189D02*
Y19094D01*
Y13189D02*
X144488Y12598D01*
X143898Y19094D02*
X144468Y19665D01*
X146850Y29528D02*
X146890Y29488D01*
X153583D01*
X153779Y29291D01*
X144488Y27559D02*
Y29528D01*
X66831Y4035D02*
X68346Y2520D01*
X66831Y4035D02*
Y6398D01*
D50*
X79646Y53150D02*
D03*
X89646D02*
D03*
X111772D02*
D03*
X121772D02*
D03*
X131772D02*
D03*
X141772D02*
D03*
X163150Y10276D02*
D03*
Y20276D02*
D03*
Y30276D02*
D03*
Y40276D02*
D03*
Y50276D02*
D03*
X153150Y10276D02*
D03*
Y20276D02*
D03*
Y30276D02*
D03*
Y40276D02*
D03*
Y50276D02*
D03*
D51*
X19685Y36220D02*
D03*
Y18898D02*
D03*
D52*
X65059Y20669D02*
D03*
X146653Y34449D02*
D03*
X143701D02*
D03*
X117126Y4921D02*
D03*
X53150Y21654D02*
D03*
X62008D02*
D03*
X91535Y36417D02*
D03*
X94488D02*
D03*
X91535Y39370D02*
D03*
X86614Y17717D02*
D03*
Y20669D02*
D03*
Y23622D02*
D03*
Y26575D02*
D03*
X71850Y5906D02*
D03*
X83661D02*
D03*
X73819Y8858D02*
D03*
X77756D02*
D03*
X98425Y55118D02*
D03*
X102362Y51181D02*
D03*
X98425D02*
D03*
X106299D02*
D03*
X59055Y21654D02*
D03*
X94488Y39370D02*
D03*
X146653Y31496D02*
D03*
X86614Y29528D02*
D03*
X56102Y21654D02*
D03*
X143701Y31496D02*
D03*
X111221Y40354D02*
D03*
X112205Y18701D02*
D03*
X123031Y4921D02*
D03*
X120079D02*
D03*
X128937Y3937D02*
D03*
X102362Y55118D02*
D03*
X106299D02*
D03*
X98425Y17717D02*
D03*
X100394Y12795D02*
D03*
X98425Y14764D02*
D03*
X48228Y53150D02*
D03*
Y50197D02*
D03*
X45276D02*
D03*
Y53150D02*
D03*
Y56102D02*
D03*
X48228D02*
D03*
X79724Y5906D02*
D03*
X77756Y11811D02*
D03*
X75787Y5906D02*
D03*
X116865Y24739D02*
D03*
X56496Y9941D02*
D03*
X41732Y8957D02*
D03*
X123721Y15354D02*
D03*
X95866Y10433D02*
D03*
Y8779D02*
D03*
X109252Y4429D02*
D03*
X102559Y7283D02*
D03*
X125492Y23917D02*
D03*
X127362Y26555D02*
D03*
X108956Y18012D02*
D03*
X61910Y18799D02*
D03*
X59055Y37402D02*
D03*
X62992D02*
D03*
X76452Y26978D02*
D03*
X75590Y38583D02*
D03*
X77658Y38484D02*
D03*
X64961Y36417D02*
D03*
X105315Y43307D02*
D03*
X103347Y41339D02*
D03*
X101378Y43307D02*
D03*
X110335Y28909D02*
D03*
Y31046D02*
D03*
X125984Y33465D02*
D03*
Y35433D02*
D03*
X134884Y37120D02*
D03*
X57480Y50000D02*
D03*
X108563Y21260D02*
D03*
X124942Y45709D02*
D03*
X117087D02*
D03*
X34449Y53150D02*
D03*
X40351Y52162D02*
D03*
X63386Y55512D02*
D03*
X62992Y53937D02*
D03*
X141732Y5709D02*
D03*
X144468Y19665D02*
D03*
X145965Y17520D02*
D03*
X144488Y12598D02*
D03*
X108563Y35039D02*
D03*
D53*
X54429Y6398D02*
D03*
X66831D02*
D03*
X54429Y14862D02*
D03*
X66831D02*
D03*
D54*
X70866Y55315D02*
D03*
Y43898D02*
D03*
X66535Y25787D02*
D03*
Y37205D02*
D03*
D55*
X33465Y44488D02*
D03*
D56*
X58661Y35433D02*
D03*
Y44488D02*
D03*
Y53543D02*
D03*
D57*
X28543Y35433D02*
X55862D01*
X26575Y37402D02*
Y50197D01*
Y37402D02*
X28543Y35433D01*
X26575Y50197D02*
X29528Y53150D01*
X34449D01*
X39364D01*
X40351Y52162D01*
D58*
X72835Y43307D02*
X101378D01*
X71457D02*
X72835D01*
M02*
