G04*
G04 #@! TF.GenerationSoftware,Altium Limited,Altium Designer,22.7.1 (60)*
G04*
G04 Layer_Color=65535*
%FSLAX25Y25*%
%MOIN*%
G70*
G04*
G04 #@! TF.SameCoordinates,1362A066-ECE3-457F-9539-8A17BD865AD3*
G04*
G04*
G04 #@! TF.FilePolarity,Positive*
G04*
G01*
G75*
%ADD10C,0.00984*%
%ADD11C,0.00787*%
%ADD12C,0.00394*%
G36*
X12795Y53150D02*
X15157Y55512D01*
Y50787D01*
X12795Y53150D01*
D02*
G37*
G36*
X75451Y41870D02*
X73673Y40048D01*
X73862D01*
Y39071D01*
X73163D01*
X73031Y37540D01*
X72842Y35426D01*
X75174Y33005D01*
X75000Y32816D01*
X72813Y35076D01*
X72798Y34945D01*
X72900Y34901D01*
X73017Y34828D01*
X73119Y34726D01*
X73192Y34624D01*
X73250Y34507D01*
X73294Y34391D01*
X73323Y34274D01*
X73338Y34128D01*
X73323Y33997D01*
X73279Y33851D01*
X73206Y33691D01*
X73104Y33545D01*
X73002Y33443D01*
X72871Y33355D01*
X72711Y33297D01*
X72579Y33253D01*
X72404D01*
X72229Y33268D01*
X72040Y33326D01*
X71879Y33443D01*
X71763Y33574D01*
X71675Y33691D01*
X71617Y33807D01*
X69897D01*
Y33210D01*
X69342D01*
Y33807D01*
X69270D01*
X69124Y35368D01*
X66631Y32816D01*
X66456Y32991D01*
X69095Y35717D01*
X68978Y36928D01*
X68818Y38604D01*
X68745Y39304D01*
X66281Y41870D01*
X66456Y42045D01*
X68716Y39698D01*
X68657Y40266D01*
X68278D01*
Y40718D01*
X68628D01*
X68613Y40820D01*
X68643Y40879D01*
X68672Y40922D01*
X68730Y40981D01*
X68818Y41054D01*
X68905Y41112D01*
X69007Y41170D01*
X69109Y41214D01*
X69182Y41258D01*
Y41535D01*
X69780D01*
Y41418D01*
X69969Y41447D01*
X70159Y41477D01*
X70334Y41491D01*
X70451D01*
Y41681D01*
X71850D01*
Y41462D01*
X72025Y41447D01*
X72244Y41404D01*
X72448Y41360D01*
X72652Y41302D01*
X72842Y41229D01*
X72973Y41170D01*
X73075Y41097D01*
X73148Y41039D01*
X73177Y41083D01*
X73250Y41127D01*
X73338Y41156D01*
X73440Y41170D01*
X73542Y41156D01*
X73644Y41112D01*
X73716Y41054D01*
X73775Y40952D01*
X73804Y40893D01*
X73819Y40806D01*
X73804Y40733D01*
X73789Y40675D01*
X73760Y40602D01*
X73716Y40558D01*
X73673Y40514D01*
X73629Y40485D01*
X73600Y40456D01*
Y40325D01*
X75262Y42045D01*
X75451Y41870D01*
D02*
G37*
G36*
X74781Y30804D02*
Y30775D01*
Y30746D01*
Y30687D01*
Y30600D01*
Y30498D01*
Y30483D01*
Y30439D01*
Y30381D01*
Y30294D01*
Y30192D01*
Y30075D01*
Y29812D01*
Y29798D01*
Y29754D01*
Y29681D01*
Y29579D01*
Y29360D01*
Y29127D01*
Y29113D01*
Y29083D01*
Y28981D01*
Y28865D01*
Y28836D01*
Y28821D01*
X66806D01*
Y28865D01*
Y28894D01*
Y28952D01*
Y29025D01*
Y29127D01*
Y29142D01*
Y29186D01*
Y29244D01*
Y29331D01*
Y29433D01*
Y29550D01*
Y29812D01*
Y29827D01*
Y29871D01*
Y29944D01*
Y30046D01*
Y30264D01*
Y30498D01*
Y30512D01*
Y30542D01*
Y30600D01*
Y30658D01*
Y30716D01*
Y30775D01*
Y30804D01*
Y30819D01*
X74781D01*
Y30804D01*
D02*
G37*
G36*
X71034Y18164D02*
X71136Y18135D01*
X71253Y18106D01*
X71384Y18048D01*
X71500Y17975D01*
X71632Y17873D01*
X71646Y17858D01*
X71675Y17829D01*
X71748Y17756D01*
X71763Y17741D01*
X71777Y17712D01*
X71836Y17625D01*
X76239Y9999D01*
X76253Y9985D01*
X76268Y9941D01*
X76297Y9854D01*
X76341Y9752D01*
X76370Y9635D01*
X76385Y9489D01*
Y9343D01*
X76370Y9183D01*
Y9168D01*
X76355Y9139D01*
X76341Y9081D01*
X76326Y9023D01*
Y9008D01*
X76312Y8979D01*
X76283Y8935D01*
X76253Y8862D01*
X76239D01*
X76224Y8848D01*
X76195Y8804D01*
X76151Y8731D01*
X76078Y8658D01*
X75991Y8571D01*
X75889Y8483D01*
X75758Y8410D01*
X75612Y8352D01*
X75597D01*
X75554Y8337D01*
X75495Y8323D01*
X75437D01*
X75422Y8308D01*
X75364D01*
X75291Y8294D01*
X66412D01*
X66325Y8308D01*
X66222Y8337D01*
X66091Y8366D01*
X65960Y8425D01*
X65829Y8498D01*
X65697Y8600D01*
X65683Y8614D01*
X65654Y8643D01*
X65581Y8716D01*
X65566Y8731D01*
X65552Y8760D01*
X65493Y8862D01*
X65479Y8877D01*
X65464Y8920D01*
X65435Y8993D01*
X65391Y9095D01*
X65362Y9212D01*
X65348Y9343D01*
Y9489D01*
X65362Y9650D01*
Y9664D01*
X65377Y9708D01*
X65391Y9766D01*
X65406Y9810D01*
Y9825D01*
X65421Y9854D01*
X65450Y9897D01*
X65479Y9956D01*
Y9970D01*
Y9985D01*
X65493D01*
X69882Y17596D01*
Y17610D01*
X69911Y17639D01*
X69969Y17727D01*
X70086Y17858D01*
X70217Y17975D01*
X70246Y17989D01*
X70305Y18018D01*
X70319Y18033D01*
X70349Y18048D01*
X70407Y18077D01*
X70465Y18106D01*
X70553Y18135D01*
X70655Y18150D01*
X70757Y18179D01*
X70946D01*
X71034Y18164D01*
D02*
G37*
G36*
X76239Y6719D02*
X76049D01*
X75320Y7827D01*
Y6719D01*
X75145D01*
Y8119D01*
X75335D01*
X76064Y7025D01*
Y8119D01*
X76239D01*
Y6719D01*
D02*
G37*
G36*
X71588D02*
X71398D01*
X70655Y7827D01*
Y6719D01*
X70480D01*
Y8119D01*
X70669D01*
X71413Y7025D01*
Y8119D01*
X71588D01*
Y6719D01*
D02*
G37*
G36*
X73308D02*
X73119D01*
Y8119D01*
X73308D01*
Y6719D01*
D02*
G37*
G36*
X72900Y7958D02*
X72434D01*
Y6719D01*
X72244D01*
Y7958D01*
X71792D01*
Y8119D01*
X72900D01*
Y7958D01*
D02*
G37*
G36*
X70203D02*
X69372D01*
Y7521D01*
X70144D01*
Y7361D01*
X69372D01*
Y6879D01*
X70232D01*
Y6719D01*
X69182D01*
Y8119D01*
X70203D01*
Y7958D01*
D02*
G37*
G36*
X68993D02*
X68526D01*
Y6719D01*
X68351D01*
Y7958D01*
X67884D01*
Y8119D01*
X68993D01*
Y7958D01*
D02*
G37*
G36*
X67797D02*
X67345D01*
Y6719D01*
X67155D01*
Y7958D01*
X66689D01*
Y8119D01*
X67797D01*
Y7958D01*
D02*
G37*
G36*
X66791Y6719D02*
X66587D01*
X66426Y7142D01*
X65843D01*
X65683Y6719D01*
X65493D01*
X66018Y8119D01*
X66222D01*
X66791Y6719D01*
D02*
G37*
G36*
X74358Y8133D02*
X74475Y8104D01*
X74591Y8046D01*
X74620Y8031D01*
X74679Y7987D01*
X74752Y7900D01*
X74825Y7798D01*
Y7783D01*
X74839Y7769D01*
X74868Y7681D01*
X74897Y7565D01*
X74912Y7419D01*
Y7404D01*
Y7390D01*
X74897Y7288D01*
X74883Y7171D01*
X74825Y7040D01*
X74810Y7011D01*
X74766Y6938D01*
X74679Y6865D01*
X74577Y6792D01*
X74548Y6777D01*
X74475Y6748D01*
X74373Y6719D01*
X74241Y6704D01*
X74212D01*
X74125Y6719D01*
X74008Y6748D01*
X73892Y6792D01*
X73862Y6806D01*
X73804Y6865D01*
X73716Y6938D01*
X73644Y7054D01*
Y7069D01*
X73629Y7083D01*
X73615Y7156D01*
X73585Y7273D01*
X73571Y7404D01*
Y7419D01*
Y7463D01*
X73585Y7521D01*
X73600Y7608D01*
X73658Y7783D01*
X73702Y7871D01*
X73760Y7944D01*
X73775Y7958D01*
X73789Y7973D01*
X73833Y8002D01*
X73892Y8046D01*
X74037Y8119D01*
X74139Y8133D01*
X74241Y8148D01*
X74271D01*
X74358Y8133D01*
D02*
G37*
G36*
X72025Y6486D02*
X72040D01*
X72054Y6471D01*
X72127Y6413D01*
Y6398D01*
X72142Y6384D01*
X72157Y6296D01*
X72069D01*
Y6311D01*
X72054Y6340D01*
X72040Y6369D01*
X72011Y6398D01*
X71982Y6413D01*
X71952Y6427D01*
X71850D01*
X71807Y6413D01*
X71777Y6398D01*
X71763Y6384D01*
X71748Y6354D01*
X71734Y6325D01*
Y6296D01*
X71763Y6252D01*
X71792Y6238D01*
X71836Y6223D01*
X71909Y6209D01*
X71923D01*
X71967Y6194D01*
X72011Y6179D01*
X72054Y6165D01*
X72069D01*
X72084Y6150D01*
X72142Y6092D01*
X72157Y6063D01*
X72171Y5990D01*
Y5961D01*
X72142Y5888D01*
X72113Y5873D01*
X72054Y5830D01*
X72040D01*
X72011Y5815D01*
X71923Y5800D01*
X71865D01*
X71807Y5815D01*
X71763Y5830D01*
X71748D01*
X71734Y5844D01*
X71661Y5903D01*
Y5917D01*
X71646Y5932D01*
X71632Y5975D01*
X71617Y6019D01*
X71705Y6034D01*
Y6005D01*
X71734Y5946D01*
X71748Y5932D01*
X71777Y5917D01*
X71807Y5888D01*
X72011D01*
X72025Y5903D01*
X72069Y5932D01*
X72084Y5946D01*
Y5990D01*
Y6005D01*
X72069Y6048D01*
X72054Y6063D01*
X72011Y6092D01*
X71982D01*
X71938Y6107D01*
X71879Y6121D01*
X71865D01*
X71821Y6136D01*
X71777Y6150D01*
X71748Y6165D01*
X71734D01*
X71719Y6179D01*
X71690Y6209D01*
X71675Y6238D01*
X71661Y6252D01*
X71646Y6311D01*
Y6325D01*
Y6340D01*
X71675Y6413D01*
Y6427D01*
X71705Y6442D01*
X71763Y6486D01*
X71777D01*
X71807Y6500D01*
X71894Y6515D01*
X71938D01*
X72025Y6486D01*
D02*
G37*
G36*
X74693D02*
X74752Y6457D01*
X74766Y6442D01*
X74796Y6413D01*
X74825Y6369D01*
X74854Y6311D01*
X74766Y6282D01*
Y6296D01*
X74752Y6325D01*
X74723Y6369D01*
X74693Y6398D01*
X74679D01*
X74664Y6413D01*
X74577Y6427D01*
X74533D01*
X74431Y6398D01*
Y6384D01*
X74402Y6369D01*
X74358Y6282D01*
Y6267D01*
Y6238D01*
X74344Y6150D01*
Y6136D01*
Y6107D01*
X74358Y6005D01*
Y5990D01*
X74387Y5961D01*
X74402Y5932D01*
X74445Y5903D01*
X74489D01*
X74562Y5888D01*
X74606D01*
X74650Y5903D01*
X74693Y5917D01*
X74708Y5932D01*
X74723Y5946D01*
X74752Y5990D01*
X74766Y6048D01*
X74868Y6019D01*
Y6005D01*
X74839Y5961D01*
X74810Y5903D01*
X74752Y5873D01*
X74737Y5859D01*
X74708Y5844D01*
X74650Y5815D01*
X74577Y5800D01*
X74562D01*
X74504Y5815D01*
X74445Y5830D01*
X74387Y5859D01*
X74373D01*
X74344Y5888D01*
X74314Y5917D01*
X74285Y5961D01*
Y5975D01*
X74271Y6019D01*
X74256Y6077D01*
X74241Y6150D01*
Y6165D01*
Y6223D01*
X74256Y6282D01*
X74285Y6340D01*
X74300Y6354D01*
X74314Y6384D01*
X74358Y6427D01*
X74402Y6471D01*
X74416Y6486D01*
X74460Y6500D01*
X74518Y6515D01*
X74635D01*
X74693Y6486D01*
D02*
G37*
G36*
X69313D02*
X69372Y6457D01*
X69386Y6442D01*
X69401Y6413D01*
X69430Y6369D01*
X69459Y6311D01*
X69372Y6282D01*
Y6296D01*
X69357Y6325D01*
X69342Y6369D01*
X69299Y6398D01*
X69270Y6413D01*
X69197Y6427D01*
X69153D01*
X69051Y6398D01*
Y6384D01*
X69022Y6369D01*
X68978Y6282D01*
Y6267D01*
X68963Y6238D01*
X68949Y6150D01*
Y6136D01*
Y6107D01*
X68978Y6005D01*
Y5990D01*
X69007Y5961D01*
X69022Y5932D01*
X69065Y5903D01*
X69109D01*
X69182Y5888D01*
X69226D01*
X69270Y5903D01*
X69313Y5917D01*
X69328D01*
X69342Y5946D01*
X69357Y5990D01*
X69386Y6048D01*
X69474Y6019D01*
Y6005D01*
X69445Y5961D01*
X69415Y5903D01*
X69372Y5873D01*
X69357Y5859D01*
X69313Y5844D01*
X69255Y5815D01*
X69197Y5800D01*
X69182D01*
X69124Y5815D01*
X69065Y5830D01*
X69007Y5859D01*
X68993D01*
X68963Y5888D01*
X68934Y5917D01*
X68891Y5961D01*
Y5975D01*
X68876Y6019D01*
X68861Y6077D01*
Y6150D01*
Y6165D01*
Y6223D01*
X68876Y6282D01*
X68905Y6340D01*
X68920Y6354D01*
X68934Y6384D01*
X68978Y6427D01*
X69022Y6471D01*
X69036Y6486D01*
X69065Y6500D01*
X69124Y6515D01*
X69255D01*
X69313Y6486D01*
D02*
G37*
G36*
X74110Y5815D02*
X74008D01*
Y6500D01*
X74110D01*
Y5815D01*
D02*
G37*
G36*
X73906Y6413D02*
X73673D01*
Y5815D01*
X73585D01*
Y6413D01*
X73352D01*
Y6500D01*
X73906D01*
Y6413D01*
D02*
G37*
G36*
X73410Y5815D02*
X73294D01*
X73221Y6005D01*
X72929D01*
X72842Y5815D01*
X72754D01*
X73017Y6500D01*
X73119D01*
X73410Y5815D01*
D02*
G37*
G36*
X72798Y6413D02*
X72565D01*
Y5815D01*
X72477D01*
Y6413D01*
X72244D01*
Y6500D01*
X72798D01*
Y6413D01*
D02*
G37*
G36*
X70640Y6486D02*
X70655D01*
X70669Y6471D01*
X70698Y6442D01*
X70713Y6413D01*
Y6398D01*
X70728Y6384D01*
X70742Y6311D01*
Y6296D01*
Y6267D01*
X70728Y6223D01*
X70698Y6179D01*
X70684D01*
X70669Y6150D01*
X70626Y6136D01*
X70553Y6121D01*
X70567Y6107D01*
X70611Y6077D01*
X70626Y6063D01*
X70684Y5990D01*
X70801Y5815D01*
X70684D01*
X70596Y5946D01*
Y5961D01*
X70567Y5990D01*
X70553Y6019D01*
X70524Y6048D01*
X70509Y6063D01*
X70480Y6092D01*
X70465D01*
X70436Y6107D01*
X70290D01*
Y5815D01*
X70188D01*
Y6500D01*
X70553D01*
X70640Y6486D01*
D02*
G37*
G36*
X70101Y6413D02*
X69867D01*
Y5815D01*
X69765D01*
Y6413D01*
X69547D01*
Y6500D01*
X70101D01*
Y6413D01*
D02*
G37*
G36*
X68745D02*
X68336D01*
Y6209D01*
X68716D01*
Y6121D01*
X68336D01*
Y5888D01*
X68759D01*
Y5815D01*
X68234D01*
Y6500D01*
X68745D01*
Y6413D01*
D02*
G37*
G36*
X67782Y5888D02*
X68132D01*
Y5815D01*
X67695D01*
Y6500D01*
X67782D01*
Y5888D01*
D02*
G37*
G36*
X67549Y6413D02*
X67141D01*
Y6209D01*
X67520D01*
Y6121D01*
X67141D01*
Y5888D01*
X67564D01*
Y5815D01*
X67039D01*
Y6500D01*
X67549D01*
Y6413D01*
D02*
G37*
G36*
X71311Y6486D02*
X71369Y6457D01*
X71384D01*
X71413Y6427D01*
X71457Y6398D01*
X71486Y6340D01*
X71500Y6325D01*
X71515Y6282D01*
X71530Y6223D01*
Y6150D01*
Y6136D01*
Y6077D01*
X71515Y6019D01*
X71486Y5961D01*
X71471Y5946D01*
X71457Y5917D01*
X71369Y5844D01*
X71355D01*
X71325Y5830D01*
X71267Y5815D01*
X71194Y5800D01*
X71180D01*
X71136Y5815D01*
X71078Y5830D01*
X71019Y5859D01*
X71005D01*
X70976Y5888D01*
X70932Y5917D01*
X70903Y5961D01*
Y5975D01*
X70888Y6005D01*
X70873Y6063D01*
Y6136D01*
Y6150D01*
Y6165D01*
X70888Y6238D01*
X70917Y6325D01*
X70961Y6413D01*
X70976Y6427D01*
X71019Y6471D01*
X71092Y6500D01*
X71194Y6515D01*
X71253D01*
X71311Y6486D01*
D02*
G37*
G36*
X68891Y5553D02*
X68905D01*
X68920Y5538D01*
X68993Y5480D01*
Y5465D01*
X69007Y5451D01*
X69022Y5363D01*
X68934D01*
Y5378D01*
X68920Y5407D01*
X68905Y5436D01*
X68876Y5465D01*
X68861D01*
X68847Y5480D01*
X68759Y5494D01*
X68716D01*
X68672Y5480D01*
X68643Y5465D01*
X68628Y5451D01*
X68613Y5421D01*
X68599Y5392D01*
Y5363D01*
X68628Y5334D01*
X68657Y5319D01*
X68701Y5305D01*
X68774Y5275D01*
X68788D01*
X68818Y5261D01*
X68920Y5232D01*
X68934D01*
X68949Y5217D01*
X68978Y5203D01*
X69007Y5159D01*
X69022Y5144D01*
X69036Y5071D01*
Y5057D01*
Y5042D01*
X69007Y4955D01*
X68993Y4926D01*
X68920Y4882D01*
X68905D01*
X68876Y4867D01*
X68788Y4853D01*
X68730D01*
X68672Y4867D01*
X68628Y4882D01*
X68613D01*
X68584Y4911D01*
X68555Y4926D01*
X68526Y4969D01*
Y4984D01*
X68511Y5013D01*
X68497Y5057D01*
X68482Y5100D01*
X68570D01*
Y5071D01*
X68599Y5013D01*
X68613Y4998D01*
X68643Y4984D01*
X68672Y4955D01*
X68701D01*
X68774Y4940D01*
X68803D01*
X68876Y4955D01*
X68891Y4969D01*
X68934Y4998D01*
X68949Y5013D01*
Y5057D01*
Y5071D01*
Y5086D01*
X68934Y5115D01*
X68920Y5130D01*
X68861Y5159D01*
X68847D01*
X68832Y5173D01*
X68745Y5188D01*
X68730D01*
X68686Y5203D01*
X68643Y5217D01*
X68613Y5232D01*
X68599D01*
X68584Y5246D01*
X68555Y5275D01*
X68541Y5305D01*
X68526Y5334D01*
X68511Y5392D01*
Y5407D01*
Y5421D01*
X68541Y5480D01*
Y5494D01*
X68570Y5509D01*
X68584Y5538D01*
X68628Y5553D01*
X68643D01*
X68672Y5567D01*
X68759Y5582D01*
X68803D01*
X68891Y5553D01*
D02*
G37*
G36*
X66893D02*
X66908D01*
X66922Y5538D01*
X66981Y5480D01*
Y5465D01*
X66995Y5451D01*
X67010Y5363D01*
X66922D01*
Y5378D01*
Y5407D01*
X66908Y5436D01*
X66878Y5465D01*
X66864D01*
X66849Y5480D01*
X66806Y5494D01*
X66703D01*
X66660Y5480D01*
X66631Y5465D01*
X66616Y5451D01*
X66602Y5421D01*
X66587Y5392D01*
Y5378D01*
X66616Y5334D01*
X66645Y5319D01*
X66689Y5305D01*
X66762Y5275D01*
X66776D01*
X66820Y5261D01*
X66908Y5232D01*
X66922D01*
X66937Y5217D01*
X66981Y5203D01*
X67010Y5159D01*
X67024Y5144D01*
X67039Y5071D01*
Y5057D01*
Y5042D01*
X67010Y4955D01*
X66981Y4926D01*
X66908Y4882D01*
X66893D01*
X66864Y4867D01*
X66776Y4853D01*
X66718D01*
X66616Y4882D01*
X66602D01*
X66587Y4911D01*
X66514Y4969D01*
Y4984D01*
X66499Y5013D01*
X66485Y5100D01*
X66572D01*
Y5086D01*
Y5071D01*
X66602Y5013D01*
X66616Y4998D01*
X66660Y4955D01*
X66703D01*
X66776Y4940D01*
X66806D01*
X66864Y4955D01*
X66878D01*
X66893Y4969D01*
X66922Y4998D01*
X66937Y5013D01*
X66951Y5057D01*
Y5071D01*
X66922Y5115D01*
X66908Y5130D01*
X66864Y5159D01*
X66849D01*
X66820Y5173D01*
X66733Y5188D01*
X66718D01*
X66689Y5203D01*
X66645Y5217D01*
X66602Y5232D01*
X66572Y5246D01*
X66529Y5305D01*
X66514Y5334D01*
X66499Y5392D01*
Y5407D01*
Y5421D01*
X66529Y5480D01*
X66543Y5494D01*
X66558Y5509D01*
X66587Y5538D01*
X66631Y5553D01*
X66645D01*
X66674Y5567D01*
X66747Y5582D01*
X66791D01*
X66893Y5553D01*
D02*
G37*
G36*
X74577D02*
X74635Y5523D01*
X74650Y5509D01*
X74679Y5494D01*
X74708Y5451D01*
X74737Y5378D01*
X74650Y5348D01*
Y5363D01*
X74635Y5392D01*
X74606Y5436D01*
X74577Y5465D01*
X74562Y5480D01*
X74548Y5494D01*
X74504Y5509D01*
X74416D01*
X74373Y5494D01*
X74329Y5465D01*
X74314D01*
X74285Y5436D01*
X74256Y5407D01*
X74241Y5363D01*
Y5348D01*
Y5319D01*
X74227Y5217D01*
Y5203D01*
Y5173D01*
X74256Y5071D01*
Y5057D01*
X74271Y5028D01*
X74300Y4998D01*
X74329Y4969D01*
X74344D01*
X74373Y4955D01*
X74445Y4940D01*
X74489D01*
X74533Y4955D01*
X74577Y4984D01*
X74591Y4998D01*
X74606Y5013D01*
X74635Y5057D01*
X74650Y5115D01*
X74737Y5086D01*
Y5071D01*
X74708Y5028D01*
X74679Y4969D01*
X74635Y4911D01*
X74620Y4896D01*
X74591Y4882D01*
X74533Y4867D01*
X74460Y4853D01*
X74387D01*
X74329Y4867D01*
X74271Y4896D01*
X74256Y4911D01*
X74227Y4940D01*
X74198Y4984D01*
X74168Y5042D01*
Y5057D01*
X74154Y5086D01*
X74139Y5144D01*
X74125Y5217D01*
Y5232D01*
Y5290D01*
X74139Y5348D01*
X74168Y5407D01*
X74183Y5421D01*
X74198Y5451D01*
X74241Y5494D01*
X74285Y5538D01*
X74300Y5553D01*
X74329Y5567D01*
X74387Y5582D01*
X74518D01*
X74577Y5553D01*
D02*
G37*
G36*
X68366Y4867D02*
X68264D01*
X67899Y5421D01*
Y4867D01*
X67812D01*
Y5567D01*
X67899D01*
X68278Y5013D01*
Y5567D01*
X68366D01*
Y4867D01*
D02*
G37*
G36*
X73527D02*
X73440D01*
X73163Y5567D01*
X73264D01*
X73440Y5057D01*
Y5042D01*
X73454Y5013D01*
X73483Y4940D01*
Y4955D01*
Y4984D01*
X73512Y5057D01*
X73702Y5567D01*
X73804D01*
X73527Y4867D01*
D02*
G37*
G36*
X70596D02*
X70509D01*
X70232Y5567D01*
X70334D01*
X70509Y5057D01*
X70524Y5042D01*
X70538Y4998D01*
X70553Y4940D01*
Y4955D01*
X70567Y4984D01*
X70596Y5057D01*
X70771Y5567D01*
X70873D01*
X70596Y4867D01*
D02*
G37*
G36*
X75364Y5480D02*
X74956D01*
Y5275D01*
X75335D01*
Y5188D01*
X74956D01*
Y4955D01*
X75379D01*
Y4867D01*
X74868D01*
Y5567D01*
X75364D01*
Y5480D01*
D02*
G37*
G36*
X73994Y4867D02*
X73906D01*
Y5567D01*
X73994D01*
Y4867D01*
D02*
G37*
G36*
X73090Y5480D02*
X72681D01*
Y5275D01*
X73060D01*
Y5188D01*
X72681D01*
Y4955D01*
X73104D01*
Y4867D01*
X72579D01*
Y5567D01*
X73090D01*
Y5480D01*
D02*
G37*
G36*
X72244Y5553D02*
X72259D01*
X72273Y5538D01*
X72346Y5509D01*
X72361Y5494D01*
X72375Y5480D01*
X72434Y5392D01*
Y5378D01*
X72448Y5348D01*
Y5290D01*
Y5217D01*
Y5203D01*
Y5173D01*
Y5130D01*
X72434Y5086D01*
Y5071D01*
X72419Y5057D01*
X72390Y4984D01*
X72361Y4955D01*
X72331Y4911D01*
X72302Y4896D01*
X72244Y4882D01*
X72215D01*
X72127Y4867D01*
X71879D01*
Y5567D01*
X72157D01*
X72244Y5553D01*
D02*
G37*
G36*
X71457Y5480D02*
X71048D01*
Y5275D01*
X71428D01*
Y5188D01*
X71048D01*
Y4955D01*
X71471D01*
Y4867D01*
X70961D01*
Y5567D01*
X71457D01*
Y5480D01*
D02*
G37*
G36*
X70144Y4867D02*
X70042D01*
Y5567D01*
X70144D01*
Y4867D01*
D02*
G37*
G36*
X69940Y5480D02*
X69707D01*
Y4867D01*
X69620D01*
Y5480D01*
X69386D01*
Y5567D01*
X69940D01*
Y5480D01*
D02*
G37*
G36*
X69270Y4867D02*
X69182D01*
Y5567D01*
X69270D01*
Y4867D01*
D02*
G37*
G36*
X67666Y5480D02*
X67258D01*
Y5275D01*
X67637D01*
Y5188D01*
X67258D01*
Y4955D01*
X67680D01*
Y4867D01*
X67170D01*
Y5567D01*
X67666D01*
Y5480D01*
D02*
G37*
%LPC*%
G36*
X71602Y41433D02*
X70713D01*
Y41287D01*
X71602D01*
Y41433D01*
D02*
G37*
G36*
X69532Y41287D02*
X69430D01*
Y40952D01*
X69532D01*
Y41287D01*
D02*
G37*
G36*
X70451Y41229D02*
X70203Y41214D01*
X69984Y41185D01*
X69780Y41141D01*
Y40718D01*
X73031D01*
Y40777D01*
X72929Y40879D01*
X72798Y40952D01*
X72623Y41039D01*
X72404Y41097D01*
X72142Y41156D01*
X71850Y41199D01*
Y41039D01*
X70451D01*
Y41229D01*
D02*
G37*
G36*
X69182Y40966D02*
X69036Y40893D01*
X68949Y40835D01*
X68876Y40762D01*
Y40718D01*
X69182D01*
Y40966D01*
D02*
G37*
G36*
X73425Y40922D02*
X73410D01*
X73367Y40908D01*
X73323Y40864D01*
X73308Y40791D01*
Y40777D01*
X73323Y40733D01*
X73352Y40689D01*
X73425Y40675D01*
X73440D01*
X73498Y40689D01*
X73542Y40718D01*
X73556Y40791D01*
Y40806D01*
X73542Y40864D01*
X73498Y40908D01*
X73425Y40922D01*
D02*
G37*
G36*
X73600Y39800D02*
X73119D01*
Y39319D01*
X73600D01*
Y39800D01*
D02*
G37*
G36*
X71982Y38706D02*
X70669D01*
Y38619D01*
X71982D01*
Y38706D01*
D02*
G37*
G36*
X73002Y40266D02*
X68920D01*
X68993Y39421D01*
X70844Y37496D01*
X71690Y38371D01*
X70421D01*
Y38954D01*
X72259D01*
X72871Y39581D01*
Y40048D01*
X72973D01*
X73002Y40266D01*
D02*
G37*
G36*
X69036Y39013D02*
X69328Y35936D01*
X70669Y37321D01*
X69036Y39013D01*
D02*
G37*
G36*
X72871Y39217D02*
X72259Y38590D01*
Y38371D01*
X72040D01*
X71019Y37321D01*
X72609Y35674D01*
X72900Y39071D01*
X72871D01*
Y39217D01*
D02*
G37*
G36*
X70844Y37132D02*
X69357Y35601D01*
X69503Y34070D01*
X71559D01*
X71544Y34201D01*
X71588Y34391D01*
X71661Y34566D01*
X71763Y34711D01*
X71865Y34813D01*
X71982Y34901D01*
X72142Y34974D01*
X72302Y35017D01*
X72434Y35032D01*
X72550Y35017D01*
X72579Y35338D01*
X70844Y37132D01*
D02*
G37*
G36*
X72434Y34580D02*
X72361D01*
X72302Y34551D01*
X72215Y34522D01*
X72142Y34478D01*
X72069Y34391D01*
X72011Y34288D01*
X71996Y34143D01*
Y34128D01*
X72011Y34070D01*
X72025Y34012D01*
X72054Y33924D01*
X72098Y33851D01*
X72186Y33778D01*
X72288Y33720D01*
X72434Y33705D01*
X72448D01*
X72506Y33720D01*
X72579Y33735D01*
X72652Y33764D01*
X72740Y33807D01*
X72798Y33895D01*
X72856Y33997D01*
X72871Y34143D01*
Y34157D01*
Y34216D01*
X72842Y34288D01*
X72813Y34361D01*
X72769Y34449D01*
X72681Y34507D01*
X72579Y34566D01*
X72434Y34580D01*
D02*
G37*
G36*
X69649Y33807D02*
X69590D01*
Y33457D01*
X69649D01*
Y33807D01*
D02*
G37*
%LPD*%
G36*
X72579Y34405D02*
X72638Y34361D01*
X72681Y34318D01*
X72711Y34245D01*
X72725Y34143D01*
Y34128D01*
Y34099D01*
X72696Y33997D01*
X72652Y33939D01*
X72609Y33895D01*
X72536Y33866D01*
X72434Y33851D01*
X72390D01*
X72288Y33895D01*
X72229Y33924D01*
X72186Y33968D01*
X72157Y34041D01*
X72142Y34143D01*
Y34157D01*
Y34187D01*
X72186Y34288D01*
X72215Y34347D01*
X72259Y34391D01*
X72331Y34420D01*
X72434Y34434D01*
X72477D01*
X72579Y34405D01*
D02*
G37*
%LPC*%
G36*
X72463Y34187D02*
X72419D01*
X72404Y34172D01*
X72390Y34143D01*
Y34128D01*
X72404Y34114D01*
X72434Y34099D01*
X72463D01*
X72477Y34114D01*
Y34143D01*
Y34157D01*
Y34172D01*
X72463Y34187D01*
D02*
G37*
G36*
X70873Y17435D02*
X70844D01*
X70771Y17421D01*
X70669Y17406D01*
X70553Y17348D01*
X70538Y17333D01*
X70524Y17319D01*
X70509D01*
X70494Y17304D01*
X70451Y17260D01*
X70392Y17202D01*
X70334Y17115D01*
X68366Y13703D01*
X69007Y13338D01*
X69022Y13353D01*
X69051Y13397D01*
X69124Y13455D01*
X69211Y13528D01*
X69226Y13542D01*
X69284Y13571D01*
X69357Y13630D01*
X69459Y13688D01*
X69474Y13703D01*
X69517Y13732D01*
X69532D01*
X69547Y13747D01*
X69590Y13776D01*
X69605D01*
X69620Y13790D01*
X69678Y13834D01*
X69751Y13878D01*
X69794Y13907D01*
X69809Y13921D01*
X69853Y13951D01*
X69926Y13994D01*
X70028Y14053D01*
X70246Y14184D01*
X70363Y14242D01*
X70480Y14286D01*
X70494D01*
X70538Y14300D01*
X70611Y14330D01*
X70698Y14344D01*
X70801Y14359D01*
X70932Y14373D01*
X71078Y14388D01*
X71253D01*
X71325Y14373D01*
X71588D01*
X71719Y14359D01*
X71982D01*
X72040Y14373D01*
X72171Y14403D01*
X72331Y14446D01*
X72827Y14650D01*
X71398Y17129D01*
X71384D01*
X71369Y17144D01*
X71340Y17202D01*
Y17217D01*
X71311Y17231D01*
X71282Y17260D01*
X71267Y17275D01*
X71253Y17289D01*
X71165Y17348D01*
X71034Y17391D01*
X70961Y17421D01*
X70873D01*
Y17435D01*
D02*
G37*
G36*
X72900Y14505D02*
X72390Y14300D01*
X72375D01*
X72346Y14286D01*
X72302Y14271D01*
X72244Y14242D01*
X72098Y14213D01*
X71923Y14184D01*
X71763D01*
X71617Y14198D01*
X71428Y14213D01*
X70976D01*
X70757Y14184D01*
X70538Y14140D01*
X70524D01*
X70494Y14126D01*
X70436Y14096D01*
X70349Y14053D01*
X70261Y14009D01*
X70144Y13951D01*
X70028Y13863D01*
X69897Y13776D01*
X69882Y13761D01*
X69838Y13747D01*
X69780Y13703D01*
X69678Y13630D01*
X69649Y13615D01*
X69605Y13601D01*
X69547Y13557D01*
X69532Y13542D01*
X69474Y13513D01*
X69401Y13455D01*
X69313Y13397D01*
X69299Y13382D01*
X69255Y13353D01*
X69211Y13309D01*
X69153Y13251D01*
X72302Y11428D01*
X72317D01*
X72361Y11443D01*
X72419Y11472D01*
X72506Y11516D01*
X72609Y11574D01*
X72725Y11661D01*
X72856Y11778D01*
X73002Y11909D01*
X73017Y11924D01*
X73031Y11939D01*
X73104Y12026D01*
X73119Y12041D01*
X73133Y12055D01*
X73192Y12128D01*
X73206Y12143D01*
X73221Y12186D01*
X73264Y12274D01*
X73323Y12405D01*
Y12420D01*
X73338Y12434D01*
X73367Y12522D01*
X73396Y12609D01*
X73440Y12711D01*
X73454Y12741D01*
X73498Y12799D01*
X73556Y12872D01*
X73629Y12959D01*
X73644Y12974D01*
X73673Y12988D01*
X73746Y13047D01*
X72900Y14505D01*
D02*
G37*
G36*
X70640Y11822D02*
Y11807D01*
Y11778D01*
X70626Y11749D01*
Y11720D01*
Y11705D01*
Y11676D01*
X70655Y11589D01*
Y11574D01*
X70669Y11545D01*
X70684Y11530D01*
X70698Y11487D01*
X70728Y11428D01*
X70757Y11384D01*
X70771D01*
X70786Y11414D01*
X70859Y11457D01*
X70946Y11530D01*
X71034Y11603D01*
X70640Y11822D01*
D02*
G37*
G36*
X70217Y12070D02*
Y12055D01*
X70188Y12041D01*
X70144Y11953D01*
Y11939D01*
Y11909D01*
X70130Y11851D01*
Y11793D01*
Y11778D01*
Y11749D01*
Y11661D01*
Y11574D01*
Y11545D01*
Y11530D01*
Y11501D01*
Y11443D01*
X70144Y11370D01*
X70159Y11297D01*
Y11282D01*
X70174Y11239D01*
X70188Y11210D01*
X70203Y11180D01*
Y11166D01*
X70232Y11122D01*
X70261Y11049D01*
X70319Y10962D01*
Y10976D01*
X70334Y10991D01*
X70349Y11005D01*
X70363Y11020D01*
X70392Y11049D01*
X70451Y11107D01*
X70538Y11195D01*
X70640Y11282D01*
X70626Y11297D01*
X70611Y11326D01*
X70567Y11399D01*
X70524Y11487D01*
X70509Y11516D01*
Y11530D01*
X70494Y11574D01*
X70480Y11632D01*
X70465Y11705D01*
Y11720D01*
Y11764D01*
X70480Y11836D01*
X70494Y11909D01*
X70217Y12070D01*
D02*
G37*
G36*
X69824Y12289D02*
Y12274D01*
X69809Y12216D01*
X69765Y12128D01*
X69692Y12011D01*
X69678Y11997D01*
X69649Y11939D01*
X69605Y11866D01*
X69590Y11807D01*
Y11793D01*
Y11734D01*
X69605Y11647D01*
X69620Y11574D01*
X69649Y11487D01*
Y11472D01*
X69663Y11443D01*
X69678Y11399D01*
X69692Y11341D01*
X69722Y11210D01*
Y11166D01*
Y11122D01*
Y11093D01*
X69707Y11035D01*
X69692Y10933D01*
Y10816D01*
Y10787D01*
X69707Y10772D01*
X69722D01*
X69736Y10758D01*
X69765Y10743D01*
X69794Y10714D01*
X69809D01*
X69824Y10699D01*
X69853Y10670D01*
X69867Y10655D01*
X69897Y10626D01*
X69955Y10597D01*
X69969D01*
X69984Y10568D01*
X70042Y10539D01*
X70057Y10568D01*
X70086Y10626D01*
X70130Y10714D01*
X70203Y10830D01*
X70188Y10860D01*
X70159Y10918D01*
X70101Y11005D01*
X70057Y11107D01*
Y11122D01*
X70042Y11151D01*
X70028Y11180D01*
X70013D01*
Y11195D01*
Y11210D01*
X69999Y11253D01*
Y11268D01*
Y11282D01*
X69984Y11326D01*
X69969Y11414D01*
Y11530D01*
Y11545D01*
Y11574D01*
Y11647D01*
Y11661D01*
Y11691D01*
Y11793D01*
Y11807D01*
Y11866D01*
Y11924D01*
X69984Y11997D01*
Y12011D01*
X70013Y12055D01*
X70072Y12157D01*
X69824Y12289D01*
D02*
G37*
G36*
X71646Y10845D02*
X71632D01*
X71617Y10830D01*
X71559Y10801D01*
X71500Y10758D01*
X71457Y10728D01*
X71442Y10714D01*
X71398Y10670D01*
X71340Y10597D01*
X71282Y10510D01*
Y10495D01*
X71267Y10481D01*
Y10466D01*
X71282D01*
X71296Y10451D01*
X71369Y10408D01*
X71398D01*
X71457Y10393D01*
X71544Y10379D01*
X71661Y10364D01*
X71734D01*
X71792Y10379D01*
X71836Y10408D01*
Y10422D01*
Y10437D01*
X71850Y10481D01*
X71865Y10524D01*
Y10554D01*
Y10568D01*
Y10583D01*
Y10612D01*
X71836Y10641D01*
Y10655D01*
X71821D01*
Y10670D01*
Y10685D01*
X71792Y10699D01*
X71748Y10758D01*
X71675Y10816D01*
X71646Y10845D01*
D02*
G37*
G36*
X71194Y11516D02*
X71165Y11501D01*
X71092Y11443D01*
X70990Y11355D01*
X70844Y11253D01*
X70830D01*
X70815Y11224D01*
X70728Y11151D01*
X70611Y11049D01*
X70494Y10918D01*
X70480Y10903D01*
X70436Y10845D01*
X70378Y10772D01*
X70319Y10670D01*
X70246Y10554D01*
X70188Y10422D01*
X70144Y10291D01*
X70132Y10176D01*
X70130Y10174D01*
Y10160D01*
X70132Y10176D01*
X70144Y10189D01*
X70159Y10218D01*
X70174Y10233D01*
X70188Y10247D01*
X70232Y10276D01*
X70305Y10320D01*
X70392Y10364D01*
X70407D01*
X70421Y10379D01*
X70465D01*
X70480Y10393D01*
X70494D01*
X70524Y10408D01*
X70553D01*
X70640Y10422D01*
X70844D01*
X70859Y10408D01*
X70917Y10393D01*
X70961D01*
X71048Y10364D01*
Y10379D01*
X71063Y10393D01*
X71078Y10437D01*
Y10451D01*
X71092Y10466D01*
X71107Y10524D01*
X71136Y10583D01*
Y10597D01*
X71150Y10612D01*
X71194Y10670D01*
X71267Y10758D01*
X71355Y10845D01*
X71369D01*
X71398Y10874D01*
X71457Y10918D01*
X71544Y10976D01*
X71559D01*
X71573Y10991D01*
X71646Y11049D01*
X71719Y11107D01*
X71792Y11166D01*
X71194Y11516D01*
D02*
G37*
G36*
X71209Y10306D02*
Y10291D01*
X71194Y10233D01*
Y10218D01*
X71165Y10160D01*
X71136Y10072D01*
X71078Y9970D01*
X71092Y9956D01*
X71121Y9941D01*
X71180Y9927D01*
X71253Y9912D01*
X71311D01*
X71355Y9927D01*
X71398Y9956D01*
X71413D01*
X71428Y9970D01*
Y9999D01*
X71442Y10014D01*
Y10043D01*
Y10058D01*
Y10102D01*
Y10160D01*
X71398Y10233D01*
X71384D01*
X71369Y10247D01*
X71340D01*
X71325Y10262D01*
X71311D01*
X71282Y10276D01*
X71238Y10291D01*
X71209Y10306D01*
D02*
G37*
G36*
X68847Y12872D02*
Y12857D01*
Y12843D01*
X68818Y12755D01*
X68774Y12609D01*
X68686Y12434D01*
Y12420D01*
X68672Y12405D01*
X68628Y12318D01*
X68599Y12216D01*
X68570Y12143D01*
Y12113D01*
X68555Y12084D01*
Y12041D01*
X68570Y11968D01*
Y11895D01*
X68599Y11793D01*
X68628Y11676D01*
Y11661D01*
X68643Y11618D01*
X68657Y11574D01*
X68672Y11530D01*
Y11516D01*
Y11487D01*
X68686Y11414D01*
X68716Y11282D01*
X68745Y11093D01*
Y11078D01*
Y11064D01*
X68759Y10962D01*
X68774Y10860D01*
X68803Y10743D01*
X68818Y10714D01*
X68832Y10655D01*
X68876Y10568D01*
X68920Y10466D01*
X68934Y10451D01*
X68949Y10393D01*
X68963Y10335D01*
X68993Y10276D01*
X69022D01*
X69036Y10291D01*
X69124D01*
X69211Y10262D01*
X69270Y10233D01*
X69328Y10204D01*
X69372Y10145D01*
X69430Y10072D01*
X69445Y10043D01*
X69474Y10014D01*
X69488Y9999D01*
X69503Y9970D01*
X69547Y9868D01*
Y9839D01*
Y9781D01*
Y9766D01*
Y9752D01*
Y9722D01*
Y9708D01*
X69561Y9722D01*
X69590Y9737D01*
X69605Y9752D01*
X69649Y9810D01*
X69692Y9883D01*
X69722Y9985D01*
Y10014D01*
Y10043D01*
X69707Y10087D01*
Y10160D01*
X69678Y10262D01*
X69649Y10379D01*
X69605Y10524D01*
X69590Y10539D01*
Y10568D01*
X69576Y10626D01*
X69561Y10641D01*
Y10670D01*
X69547Y10714D01*
Y10728D01*
X69532Y10758D01*
Y10772D01*
Y10816D01*
Y10830D01*
Y10845D01*
Y10933D01*
Y11035D01*
X69561Y11166D01*
Y11180D01*
Y11210D01*
X69547Y11297D01*
X69532Y11355D01*
X69503Y11428D01*
Y11443D01*
X69488Y11472D01*
X69474Y11530D01*
X69459Y11589D01*
X69430Y11720D01*
X69415Y11793D01*
Y11836D01*
Y11851D01*
X69445Y11909D01*
X69488Y11997D01*
X69561Y12099D01*
Y12113D01*
X69576Y12128D01*
X69620Y12201D01*
X69663Y12303D01*
X69678Y12391D01*
X68847Y12872D01*
D02*
G37*
G36*
X70830Y10349D02*
X70786D01*
X70698Y10335D01*
X70640D01*
X70567Y10320D01*
X70509Y10306D01*
X70451D01*
X70436Y10291D01*
X70407D01*
X70392Y10276D01*
X70349Y10262D01*
X70290Y10218D01*
X70232Y10174D01*
X70217Y10145D01*
X70188Y10102D01*
X70159Y10029D01*
X70144Y10014D01*
X70130Y9941D01*
Y9912D01*
X70159Y9854D01*
X70188Y9781D01*
X70232Y9722D01*
X70261Y9708D01*
X70290Y9693D01*
X70349Y9679D01*
X70524D01*
X70582Y9708D01*
X70611Y9722D01*
X70640Y9737D01*
X70684Y9766D01*
X70698Y9781D01*
X70742Y9825D01*
X70801Y9883D01*
X70888Y9999D01*
Y10014D01*
X70903Y10029D01*
X70961Y10102D01*
X71005Y10189D01*
X71034Y10276D01*
X71019Y10291D01*
X70990Y10306D01*
X70917Y10320D01*
X70830Y10349D01*
D02*
G37*
G36*
X69153Y10218D02*
X69080D01*
X69036Y10204D01*
X69022D01*
X69036Y10145D01*
Y10131D01*
X69051Y10102D01*
X69080Y10043D01*
X69095Y9985D01*
X69153Y9854D01*
X69182Y9795D01*
X69211Y9752D01*
X69226Y9737D01*
X69255Y9708D01*
X69313Y9679D01*
X69386Y9650D01*
X69445D01*
X69459Y9664D01*
Y9679D01*
Y9708D01*
Y9722D01*
X69474Y9737D01*
Y9781D01*
Y9795D01*
Y9810D01*
Y9825D01*
X69459Y9839D01*
Y9854D01*
X69445Y9883D01*
X69401Y9970D01*
Y9985D01*
X69386Y9999D01*
X69372Y10014D01*
X69357Y10043D01*
Y10058D01*
X69342Y10072D01*
X69284Y10131D01*
X69197Y10189D01*
X69153Y10218D01*
D02*
G37*
G36*
X73833Y12915D02*
X73819D01*
X73804Y12886D01*
X73746Y12843D01*
X73731Y12828D01*
X73702Y12784D01*
X73644Y12726D01*
X73585Y12624D01*
X73571Y12609D01*
X73556Y12565D01*
X73512Y12478D01*
X73469Y12347D01*
Y12332D01*
X73454Y12318D01*
X73425Y12230D01*
X73381Y12128D01*
X73323Y12041D01*
Y12026D01*
X73294Y11997D01*
X73235Y11924D01*
X73221Y11909D01*
X73192Y11880D01*
X73119Y11793D01*
X73104Y11778D01*
X73060Y11734D01*
X72988Y11676D01*
X72915Y11603D01*
X72711Y11457D01*
X72594Y11384D01*
X72492Y11326D01*
X75656Y9489D01*
Y9518D01*
Y9577D01*
Y9591D01*
Y9635D01*
Y9664D01*
X75641Y9722D01*
X75612Y9795D01*
X75568Y9883D01*
Y9897D01*
X73833Y12915D01*
D02*
G37*
G36*
X68118Y13280D02*
X66149Y9883D01*
Y9868D01*
Y9854D01*
X66135Y9839D01*
X66120Y9781D01*
X66106Y9766D01*
X66091Y9693D01*
Y9679D01*
Y9650D01*
X66077Y9606D01*
Y9548D01*
X66091Y9416D01*
X66149Y9270D01*
X66164D01*
X66179Y9241D01*
X66208Y9198D01*
X66222Y9183D01*
X66266Y9125D01*
X66281D01*
X66295Y9095D01*
X66383Y9052D01*
X66514Y8993D01*
X66602Y8979D01*
X66689Y8964D01*
X75058D01*
Y8979D01*
X75160D01*
X75189Y8993D01*
X75247D01*
X75291Y9023D01*
X75393Y9081D01*
X71938Y11078D01*
X71923Y11064D01*
X71894Y11035D01*
X71836Y10991D01*
X71777Y10933D01*
X71792Y10918D01*
X71821Y10903D01*
X71879Y10845D01*
X71952Y10772D01*
X71967Y10758D01*
X71982Y10743D01*
X72011Y10699D01*
X72025Y10626D01*
X72040Y10554D01*
Y10539D01*
X72025Y10495D01*
X72011Y10437D01*
X71996Y10364D01*
X71982Y10349D01*
X71967Y10306D01*
X71952Y10291D01*
X71894Y10262D01*
X71807Y10218D01*
X71675Y10204D01*
X71602D01*
Y10189D01*
X71617Y10145D01*
Y10072D01*
X71602Y9999D01*
Y9985D01*
Y9970D01*
X71588Y9927D01*
X71573Y9897D01*
X71544Y9868D01*
X71530Y9854D01*
X71515Y9839D01*
X71500Y9825D01*
X71442Y9781D01*
X71355Y9752D01*
X71238Y9737D01*
X71209D01*
X71150Y9752D01*
X71063Y9781D01*
X70976Y9839D01*
X70961Y9825D01*
X70917Y9766D01*
X70859Y9693D01*
X70786Y9635D01*
X70771D01*
X70757Y9606D01*
X70713Y9591D01*
X70655Y9562D01*
X70640D01*
X70611Y9548D01*
X70509Y9518D01*
X70319D01*
X70261Y9533D01*
X70188Y9562D01*
X70130Y9606D01*
Y9620D01*
X70101Y9635D01*
X70072Y9679D01*
X70042Y9722D01*
X70013Y9795D01*
X69984Y9883D01*
X69969Y9970D01*
X69955Y10087D01*
Y10102D01*
Y10116D01*
Y10131D01*
Y10145D01*
Y10204D01*
X69969Y10276D01*
X69984Y10364D01*
X69969Y10379D01*
X69940Y10408D01*
X69867Y10451D01*
X69853Y10466D01*
X69838Y10481D01*
X69780Y10510D01*
Y10495D01*
X69794Y10451D01*
X69824Y10379D01*
X69838Y10291D01*
X69867Y10116D01*
X69882Y10029D01*
Y9970D01*
Y9956D01*
Y9941D01*
X69853Y9839D01*
X69794Y9722D01*
X69751Y9664D01*
X69692Y9606D01*
X69678Y9591D01*
X69649Y9577D01*
X69547Y9518D01*
X69532D01*
X69488Y9504D01*
X69430Y9489D01*
X69342D01*
X69284Y9518D01*
X69182Y9562D01*
X69095Y9650D01*
X69080Y9679D01*
X69051Y9708D01*
X69036Y9752D01*
X68993Y9810D01*
X68963Y9883D01*
X68920Y9985D01*
X68876Y10102D01*
Y10116D01*
Y10131D01*
X68861Y10145D01*
Y10160D01*
Y10174D01*
X68847Y10204D01*
X68818Y10276D01*
X68788Y10320D01*
X68759Y10393D01*
Y10408D01*
X68745Y10422D01*
X68716Y10510D01*
X68686Y10597D01*
X68657Y10685D01*
Y10699D01*
X68628Y10772D01*
X68613Y10830D01*
Y10889D01*
X68599Y10976D01*
X68584Y11078D01*
Y11093D01*
Y11122D01*
X68570Y11166D01*
X68555Y11224D01*
X68541Y11355D01*
X68511Y11472D01*
Y11487D01*
Y11501D01*
X68497Y11516D01*
X68482Y11574D01*
X68468Y11632D01*
Y11647D01*
X68453Y11691D01*
X68439Y11764D01*
X68424Y11851D01*
X68395Y12026D01*
Y12113D01*
X68409Y12186D01*
Y12201D01*
X68439Y12259D01*
X68482Y12361D01*
X68541Y12493D01*
Y12507D01*
X68555Y12536D01*
X68584Y12595D01*
X68613Y12653D01*
X68657Y12813D01*
X68686Y12959D01*
X68118Y13280D01*
D02*
G37*
G36*
X66120Y7973D02*
Y7944D01*
X66106Y7885D01*
X66077Y7812D01*
X66048Y7710D01*
X65887Y7302D01*
X66368D01*
X66222Y7681D01*
Y7696D01*
X66208Y7710D01*
X66179Y7783D01*
X66149Y7871D01*
X66120Y7973D01*
D02*
G37*
G36*
X74241Y7987D02*
X74212D01*
X74125Y7973D01*
X74008Y7929D01*
X73906Y7856D01*
X73877Y7827D01*
X73833Y7739D01*
X73804Y7681D01*
X73789Y7608D01*
X73760Y7506D01*
Y7404D01*
Y7390D01*
Y7361D01*
X73775Y7317D01*
Y7258D01*
X73819Y7127D01*
X73892Y6996D01*
X73921Y6967D01*
X73994Y6923D01*
X74096Y6879D01*
X74241Y6850D01*
X74271D01*
X74358Y6865D01*
X74475Y6909D01*
X74577Y6996D01*
Y7011D01*
X74606Y7025D01*
X74650Y7113D01*
X74693Y7244D01*
X74723Y7419D01*
Y7433D01*
Y7448D01*
Y7521D01*
X74693Y7608D01*
X74664Y7710D01*
X74650Y7739D01*
X74620Y7783D01*
X74562Y7856D01*
X74489Y7914D01*
X74475Y7929D01*
X74416Y7958D01*
X74329Y7973D01*
X74241Y7987D01*
D02*
G37*
G36*
X73060Y6427D02*
Y6413D01*
Y6384D01*
X73031Y6296D01*
X72944Y6092D01*
X73192D01*
X73119Y6282D01*
Y6296D01*
X73090Y6340D01*
X73060Y6427D01*
D02*
G37*
G36*
X70553D02*
X70290D01*
Y6194D01*
X70509D01*
X70582Y6209D01*
X70596Y6223D01*
X70640Y6252D01*
X70655Y6267D01*
Y6311D01*
Y6325D01*
Y6340D01*
X70640Y6354D01*
X70611Y6384D01*
Y6398D01*
X70582Y6413D01*
X70553Y6427D01*
D02*
G37*
G36*
X71194D02*
X71136D01*
X71078Y6398D01*
X71034Y6369D01*
X71019Y6354D01*
X71005Y6311D01*
X70976Y6238D01*
X70961Y6136D01*
Y6121D01*
X70976Y6063D01*
X70990Y5990D01*
X71034Y5932D01*
X71048D01*
X71078Y5917D01*
X71121Y5903D01*
X71194Y5888D01*
X71209D01*
X71253Y5903D01*
X71311Y5917D01*
X71369Y5946D01*
X71384Y5961D01*
X71413Y6005D01*
X71428Y6063D01*
X71442Y6150D01*
Y6165D01*
Y6194D01*
X71413Y6296D01*
Y6311D01*
X71398Y6340D01*
X71369Y6369D01*
X71325Y6398D01*
X71311D01*
X71282Y6413D01*
X71194Y6427D01*
D02*
G37*
G36*
X72200Y5480D02*
X71967D01*
Y4955D01*
X72157D01*
X72229Y4969D01*
X72244D01*
X72259Y4984D01*
X72288Y4998D01*
Y5013D01*
X72302Y5028D01*
X72331Y5086D01*
Y5100D01*
X72346Y5130D01*
X72361Y5217D01*
Y5232D01*
Y5290D01*
X72346Y5334D01*
X72331Y5392D01*
Y5407D01*
X72302Y5421D01*
X72273Y5451D01*
X72229Y5465D01*
X72200Y5480D01*
D02*
G37*
%LPD*%
D10*
X111531Y35221D02*
G03*
X111531Y35221I-492J0D01*
G01*
D11*
X56102Y52559D02*
X59055D01*
X96786Y54528D02*
Y57677D01*
X98360D01*
X98885Y57152D01*
Y56102D01*
X98360Y55578D01*
X96786D01*
X97835D02*
X98885Y54528D01*
X99934Y57677D02*
X102033Y54528D01*
Y57677D02*
X99934Y54528D01*
X68242Y57677D02*
X70341D01*
X69292D01*
Y54528D01*
X71391Y57677D02*
X73490Y54528D01*
Y57677D02*
X71391Y54528D01*
D12*
X12795Y51181D02*
Y55118D01*
X24606Y57284D02*
X30512D01*
X24606Y50984D02*
X30512D01*
M02*
