G04*
G04 #@! TF.GenerationSoftware,Altium Limited,Altium Designer,22.7.1 (60)*
G04*
G04 Layer_Color=8388736*
%FSLAX25Y25*%
%MOIN*%
G70*
G04*
G04 #@! TF.SameCoordinates,1362A066-ECE3-457F-9539-8A17BD865AD3*
G04*
G04*
G04 #@! TF.FilePolarity,Negative*
G04*
G01*
G75*
%ADD29R,0.06102X0.01575*%
%ADD30R,0.01575X0.06102*%
%ADD31R,0.04921X0.02756*%
%ADD32R,0.03150X0.03937*%
%ADD33R,0.02362X0.01968*%
%ADD34R,0.03937X0.03150*%
%ADD35R,0.03150X0.05512*%
%ADD36R,0.04194X0.03494*%
%ADD37R,0.05315X0.06693*%
%ADD38R,0.03494X0.04194*%
%ADD39R,0.01575X0.01575*%
%ADD40R,0.03937X0.06693*%
%ADD41R,0.09449X0.02362*%
%ADD42R,0.10236X0.08268*%
%ADD43R,0.03937X0.03543*%
%ADD44R,0.05512X0.03150*%
%ADD45C,0.08268*%
%ADD46C,0.03937*%
D29*
X103405Y37047D02*
D03*
Y35079D02*
D03*
Y33110D02*
D03*
Y31142D02*
D03*
Y29173D02*
D03*
Y27205D02*
D03*
Y25236D02*
D03*
Y23268D02*
D03*
Y21299D02*
D03*
Y19331D02*
D03*
Y17362D02*
D03*
Y15394D02*
D03*
X136673D02*
D03*
Y17362D02*
D03*
Y19331D02*
D03*
Y21299D02*
D03*
Y23268D02*
D03*
Y25236D02*
D03*
Y27205D02*
D03*
Y29173D02*
D03*
Y31142D02*
D03*
Y33110D02*
D03*
Y35079D02*
D03*
Y37047D02*
D03*
D30*
X109213Y9587D02*
D03*
X111181D02*
D03*
X113150D02*
D03*
X115118D02*
D03*
X117087D02*
D03*
X119055D02*
D03*
X121024D02*
D03*
X122992D02*
D03*
X124961D02*
D03*
X126929D02*
D03*
X128898D02*
D03*
X130866D02*
D03*
Y42854D02*
D03*
X128898D02*
D03*
X126929D02*
D03*
X124961D02*
D03*
X122992D02*
D03*
X121024D02*
D03*
X119055D02*
D03*
X117087D02*
D03*
X115118D02*
D03*
X113150D02*
D03*
X111181D02*
D03*
X109213D02*
D03*
D31*
X38878Y32874D02*
D03*
Y25394D02*
D03*
X47736Y29134D02*
D03*
D32*
X50591Y5020D02*
D03*
X56496D02*
D03*
X52165Y54528D02*
D03*
X58071D02*
D03*
X56496Y9941D02*
D03*
X50591D02*
D03*
X59252Y32874D02*
D03*
X53347D02*
D03*
X59252Y25394D02*
D03*
X53347D02*
D03*
D33*
X57480Y50000D02*
D03*
X52756D02*
D03*
Y47244D02*
D03*
X57480D02*
D03*
D34*
X62008Y53543D02*
D03*
Y47638D02*
D03*
X20866Y4528D02*
D03*
Y10433D02*
D03*
D35*
X10236Y53150D02*
D03*
X17717D02*
D03*
X45472Y18701D02*
D03*
X37992D02*
D03*
X50591Y15354D02*
D03*
X58071D02*
D03*
D36*
X87007Y15945D02*
D03*
X93308D02*
D03*
Y43504D02*
D03*
X87007D02*
D03*
X142619Y40945D02*
D03*
X136319D02*
D03*
D37*
X85827Y22638D02*
D03*
X94488D02*
D03*
X85827Y37205D02*
D03*
X94488D02*
D03*
D38*
X99410Y50394D02*
D03*
Y44094D02*
D03*
X104331Y50394D02*
D03*
Y44094D02*
D03*
X134843Y4528D02*
D03*
Y10828D02*
D03*
D39*
X146850Y26575D02*
D03*
X144488D02*
D03*
X146850Y9843D02*
D03*
X144488D02*
D03*
X146850Y5906D02*
D03*
X144488D02*
D03*
D40*
X21850Y54134D02*
D03*
X33268D02*
D03*
D41*
X30118Y33858D02*
D03*
Y30709D02*
D03*
Y27559D02*
D03*
Y24409D02*
D03*
Y21260D02*
D03*
D42*
X8071Y45079D02*
D03*
Y10039D02*
D03*
X29724Y45079D02*
D03*
Y10039D02*
D03*
D43*
X45866Y5020D02*
D03*
Y12894D02*
D03*
X37992Y8957D02*
D03*
D44*
X39272Y50984D02*
D03*
Y43504D02*
D03*
D45*
X79646Y53150D02*
D03*
X89646D02*
D03*
X111772D02*
D03*
X121772D02*
D03*
X131772D02*
D03*
X141772D02*
D03*
X163150Y10276D02*
D03*
Y20276D02*
D03*
Y30276D02*
D03*
Y40276D02*
D03*
Y50276D02*
D03*
X153150Y10276D02*
D03*
Y20276D02*
D03*
Y30276D02*
D03*
Y40276D02*
D03*
Y50276D02*
D03*
D46*
X19685Y36220D02*
D03*
Y18898D02*
D03*
M02*
