G04*
G04 #@! TF.GenerationSoftware,Altium Limited,Altium Designer,22.7.1 (60)*
G04*
G04 Layer_Color=128*
%FSLAX25Y25*%
%MOIN*%
G70*
G04*
G04 #@! TF.SameCoordinates,1362A066-ECE3-457F-9539-8A17BD865AD3*
G04*
G04*
G04 #@! TF.FilePolarity,Positive*
G04*
G01*
G75*
%ADD16R,0.02756X0.03543*%
%ADD18R,0.03543X0.02756*%
%ADD19R,0.02756X0.05118*%
%ADD20R,0.03800X0.03100*%
%ADD22R,0.03100X0.03800*%
%ADD23R,0.01181X0.01181*%
%ADD53R,0.04134X0.02559*%
%ADD54R,0.06299X0.03543*%
%ADD55R,0.06299X0.12992*%
%ADD56R,0.06299X0.04724*%
D16*
X110531Y46949D02*
D03*
X116437D02*
D03*
X129626Y15354D02*
D03*
X123721D02*
D03*
D18*
X96457Y21654D02*
D03*
Y15748D02*
D03*
Y31496D02*
D03*
Y25591D02*
D03*
X109153Y36024D02*
D03*
Y41929D02*
D03*
D19*
X121850Y33858D02*
D03*
X129331D02*
D03*
X116437Y29724D02*
D03*
X108957D02*
D03*
D20*
X115650Y22244D02*
D03*
X109350D02*
D03*
D22*
X144685Y35236D02*
D03*
Y41536D02*
D03*
X72441Y7972D02*
D03*
Y14272D02*
D03*
X60630Y23622D02*
D03*
Y29922D02*
D03*
X64961Y50788D02*
D03*
Y44488D02*
D03*
X113386Y41634D02*
D03*
Y35334D02*
D03*
D23*
X144488Y29528D02*
D03*
X146850D02*
D03*
D53*
X54429Y6398D02*
D03*
X66831D02*
D03*
X54429Y14862D02*
D03*
X66831D02*
D03*
D54*
X70866Y55315D02*
D03*
Y43898D02*
D03*
X66535Y25787D02*
D03*
Y37205D02*
D03*
D55*
X33465Y44488D02*
D03*
D56*
X58661Y35433D02*
D03*
Y44488D02*
D03*
Y53543D02*
D03*
M02*
