G04*
G04 #@! TF.GenerationSoftware,Altium Limited,Altium Designer,22.7.1 (60)*
G04*
G04 Layer_Color=128*
%FSLAX25Y25*%
%MOIN*%
G70*
G04*
G04 #@! TF.SameCoordinates,1362A066-ECE3-457F-9539-8A17BD865AD3*
G04*
G04*
G04 #@! TF.FilePolarity,Positive*
G04*
G01*
G75*
%ADD63C,0.00200*%
D63*
X77579Y53150D02*
X81713D01*
X79646Y51083D02*
Y55216D01*
X87579Y53150D02*
X91713D01*
X89646Y51083D02*
Y55216D01*
X109705Y53150D02*
X113839D01*
X111772Y51083D02*
Y55216D01*
X119705Y53150D02*
X123839D01*
X121772Y51083D02*
Y55216D01*
X129705Y53150D02*
X133839D01*
X131772Y51083D02*
Y55216D01*
X139705Y53150D02*
X143839D01*
X141772Y51083D02*
Y55216D01*
X17913Y36220D02*
X21457D01*
X19685Y34449D02*
Y37992D01*
X17913Y18898D02*
X21457D01*
X19685Y17126D02*
Y20669D01*
X161083Y10276D02*
X165217D01*
X163150Y8209D02*
Y12342D01*
X161083Y20276D02*
X165217D01*
X163150Y18209D02*
Y22343D01*
X161083Y30276D02*
X165217D01*
X163150Y28209D02*
Y32342D01*
X161083Y40276D02*
X165217D01*
X163150Y38209D02*
Y42342D01*
X161083Y50276D02*
X165217D01*
X163150Y48209D02*
Y52342D01*
X151083Y10276D02*
X155217D01*
X153150Y8209D02*
Y12342D01*
X151083Y20276D02*
X155217D01*
X153150Y18209D02*
Y22343D01*
X151083Y30276D02*
X155217D01*
X153150Y28209D02*
Y32342D01*
X151083Y40276D02*
X155217D01*
X153150Y38209D02*
Y42342D01*
X151083Y50276D02*
X155217D01*
X153150Y48209D02*
Y52342D01*
X64764Y20669D02*
X65354D01*
X65059Y20374D02*
Y20965D01*
X146358Y34449D02*
X146949D01*
X146653Y34154D02*
Y34744D01*
X143405Y34449D02*
X143996D01*
X143701Y34154D02*
Y34744D01*
X116831Y4921D02*
X117421D01*
X117126Y4626D02*
Y5217D01*
X52854Y21654D02*
X53445D01*
X53150Y21358D02*
Y21949D01*
X61713Y21654D02*
X62303D01*
X62008Y21358D02*
Y21949D01*
X91240Y36417D02*
X91831D01*
X91535Y36122D02*
Y36713D01*
X94193Y36417D02*
X94784D01*
X94488Y36122D02*
Y36713D01*
X91240Y39370D02*
X91831D01*
X91535Y39075D02*
Y39665D01*
X86319Y17717D02*
X86909D01*
X86614Y17421D02*
Y18012D01*
X86319Y20669D02*
X86909D01*
X86614Y20374D02*
Y20965D01*
X86319Y23622D02*
X86909D01*
X86614Y23327D02*
Y23917D01*
X86319Y26575D02*
X86909D01*
X86614Y26280D02*
Y26870D01*
X71555Y5906D02*
X72146D01*
X71850Y5610D02*
Y6201D01*
X83366Y5906D02*
X83957D01*
X83661Y5610D02*
Y6201D01*
X73524Y8858D02*
X74114D01*
X73819Y8563D02*
Y9154D01*
X77461Y8858D02*
X78051D01*
X77756Y8563D02*
Y9154D01*
X98130Y55118D02*
X98721D01*
X98425Y54823D02*
Y55413D01*
X102067Y51181D02*
X102657D01*
X102362Y50886D02*
Y51476D01*
X98130Y51181D02*
X98721D01*
X98425Y50886D02*
Y51476D01*
X106004Y51181D02*
X106595D01*
X106299Y50886D02*
Y51476D01*
X58760Y21654D02*
X59350D01*
X59055Y21358D02*
Y21949D01*
X94193Y39370D02*
X94784D01*
X94488Y39075D02*
Y39665D01*
X146358Y31496D02*
X146949D01*
X146653Y31201D02*
Y31791D01*
X86319Y29528D02*
X86909D01*
X86614Y29232D02*
Y29823D01*
X55807Y21654D02*
X56398D01*
X56102Y21358D02*
Y21949D01*
X143405Y31496D02*
X143996D01*
X143701Y31201D02*
Y31791D01*
X110925Y40354D02*
X111516D01*
X111221Y40059D02*
Y40650D01*
X111909Y18701D02*
X112500D01*
X112205Y18406D02*
Y18996D01*
X122736Y4921D02*
X123327D01*
X123031Y4626D02*
Y5217D01*
X119783Y4921D02*
X120374D01*
X120079Y4626D02*
Y5217D01*
X128642Y3937D02*
X129232D01*
X128937Y3642D02*
Y4232D01*
X102067Y55118D02*
X102657D01*
X102362Y54823D02*
Y55413D01*
X106004Y55118D02*
X106595D01*
X106299Y54823D02*
Y55413D01*
X98130Y17717D02*
X98721D01*
X98425Y17421D02*
Y18012D01*
X100098Y12795D02*
X100689D01*
X100394Y12500D02*
Y13091D01*
X98130Y14764D02*
X98721D01*
X98425Y14469D02*
Y15059D01*
X47933Y53150D02*
X48524D01*
X48228Y52854D02*
Y53445D01*
X47933Y50197D02*
X48524D01*
X48228Y49902D02*
Y50492D01*
X44980Y50197D02*
X45571D01*
X45276Y49902D02*
Y50492D01*
X44980Y53150D02*
X45571D01*
X45276Y52854D02*
Y53445D01*
X44980Y56102D02*
X45571D01*
X45276Y55807D02*
Y56398D01*
X47933Y56102D02*
X48524D01*
X48228Y55807D02*
Y56398D01*
X79429Y5906D02*
X80020D01*
X79724Y5610D02*
Y6201D01*
X77461Y11811D02*
X78051D01*
X77756Y11516D02*
Y12106D01*
X75492Y5906D02*
X76083D01*
X75787Y5610D02*
Y6201D01*
X116570Y24739D02*
X117160D01*
X116865Y24444D02*
Y25034D01*
X56201Y9941D02*
X56791D01*
X56496Y9646D02*
Y10236D01*
X41437Y8957D02*
X42028D01*
X41732Y8661D02*
Y9252D01*
X123425Y15354D02*
X124016D01*
X123721Y15059D02*
Y15650D01*
X95571Y10433D02*
X96161D01*
X95866Y10138D02*
Y10728D01*
X95571Y8779D02*
X96161D01*
X95866Y8484D02*
Y9075D01*
X108957Y4429D02*
X109547D01*
X109252Y4134D02*
Y4724D01*
X102264Y7283D02*
X102854D01*
X102559Y6988D02*
Y7579D01*
X125197Y23917D02*
X125787D01*
X125492Y23622D02*
Y24213D01*
X127067Y26555D02*
X127657D01*
X127362Y26260D02*
Y26850D01*
X108661Y18012D02*
X109251D01*
X108956Y17717D02*
Y18308D01*
X61614Y18799D02*
X62205D01*
X61910Y18504D02*
Y19094D01*
X58760Y37402D02*
X59350D01*
X59055Y37106D02*
Y37697D01*
X62697Y37402D02*
X63287D01*
X62992Y37106D02*
Y37697D01*
X76157Y26978D02*
X76747D01*
X76452Y26683D02*
Y27273D01*
X75295Y38583D02*
X75886D01*
X75590Y38287D02*
Y38878D01*
X77362Y38484D02*
X77953D01*
X77658Y38189D02*
Y38780D01*
X64665Y36417D02*
X65256D01*
X64961Y36122D02*
Y36713D01*
X105020Y43307D02*
X105610D01*
X105315Y43012D02*
Y43602D01*
X103051Y41339D02*
X103642D01*
X103347Y41043D02*
Y41634D01*
X101083Y43307D02*
X101673D01*
X101378Y43012D02*
Y43602D01*
X110039Y28909D02*
X110630D01*
X110335Y28614D02*
Y29204D01*
X110039Y31046D02*
X110630D01*
X110335Y30751D02*
Y31341D01*
X125689Y33465D02*
X126279D01*
X125984Y33169D02*
Y33760D01*
X125689Y35433D02*
X126279D01*
X125984Y35138D02*
Y35728D01*
X134589Y37120D02*
X135179D01*
X134884Y36825D02*
Y37415D01*
X57185Y50000D02*
X57776D01*
X57480Y49705D02*
Y50295D01*
X108268Y21260D02*
X108858D01*
X108563Y20965D02*
Y21555D01*
X124647Y45709D02*
X125237D01*
X124942Y45413D02*
Y46004D01*
X116791Y45709D02*
X117382D01*
X117087Y45413D02*
Y46004D01*
X34154Y53150D02*
X34744D01*
X34449Y52854D02*
Y53445D01*
X40056Y52162D02*
X40647D01*
X40351Y51867D02*
Y52458D01*
X63091Y55512D02*
X63681D01*
X63386Y55216D02*
Y55807D01*
X62697Y53937D02*
X63287D01*
X62992Y53642D02*
Y54232D01*
X141437Y5709D02*
X142027D01*
X141732Y5413D02*
Y6004D01*
X144173Y19665D02*
X144764D01*
X144468Y19370D02*
Y19961D01*
X145669Y17520D02*
X146260D01*
X145965Y17224D02*
Y17815D01*
X144193Y12598D02*
X144783D01*
X144488Y12303D02*
Y12894D01*
X108268Y35039D02*
X108858D01*
X108563Y34744D02*
Y35335D01*
M02*
