G04*
G04 #@! TF.GenerationSoftware,Altium Limited,Altium Designer,22.7.1 (60)*
G04*
G04 Layer_Color=2752767*
%FSLAX25Y25*%
%MOIN*%
G70*
G04*
G04 #@! TF.SameCoordinates,1362A066-ECE3-457F-9539-8A17BD865AD3*
G04*
G04*
G04 #@! TF.FilePolarity,Positive*
G04*
G01*
G75*
%ADD11C,0.00787*%
%ADD63C,0.00200*%
%ADD64C,0.00267*%
D11*
X0Y60000D02*
X171142D01*
X0Y0D02*
Y60000D01*
X171142Y0D02*
Y60000D01*
X0Y0D02*
X171142D01*
D63*
X78846Y52350D02*
Y53950D01*
X80446D01*
Y52350D01*
X78846D01*
X88846D02*
Y53950D01*
X90446D01*
Y52350D01*
X88846D01*
X110972D02*
Y53950D01*
X112572D01*
Y52350D01*
X110972D01*
X120972D02*
Y53950D01*
X122572D01*
Y52350D01*
X120972D01*
X130972D02*
Y53950D01*
X132572D01*
Y52350D01*
X130972D01*
X140972D02*
Y53950D01*
X142572D01*
Y52350D01*
X140972D01*
X162350Y9476D02*
Y11076D01*
X163950D01*
Y9476D01*
X162350D01*
Y19476D02*
Y21076D01*
X163950D01*
Y19476D01*
X162350D01*
Y29476D02*
Y31076D01*
X163950D01*
Y29476D01*
X162350D01*
Y39476D02*
Y41076D01*
X163950D01*
Y39476D01*
X162350D01*
Y49476D02*
Y51076D01*
X163950D01*
Y49476D01*
X162350D01*
X152350Y9476D02*
Y11076D01*
X153950D01*
Y9476D01*
X152350D01*
Y19476D02*
Y21076D01*
X153950D01*
Y19476D01*
X152350D01*
Y29476D02*
Y31076D01*
X153950D01*
Y29476D01*
X152350D01*
Y39476D02*
Y41076D01*
X153950D01*
Y39476D01*
X152350D01*
Y49476D02*
Y51076D01*
X153950D01*
Y49476D01*
X152350D01*
X65059Y19869D02*
X65459Y20269D01*
X65859D01*
X65459Y20669D01*
X65859Y21069D01*
X65459D01*
X65059Y21469D01*
X64659Y21069D01*
X64259D01*
X64659Y20669D01*
X64259Y20269D01*
X64659D01*
X65059Y19869D01*
X146653Y33649D02*
X147054Y34049D01*
X147453D01*
X147054Y34449D01*
X147453Y34849D01*
X147054D01*
X146653Y35249D01*
X146254Y34849D01*
X145853D01*
X146254Y34449D01*
X145853Y34049D01*
X146254D01*
X146653Y33649D01*
X143701D02*
X144101Y34049D01*
X144501D01*
X144101Y34449D01*
X144501Y34849D01*
X144101D01*
X143701Y35249D01*
X143301Y34849D01*
X142901D01*
X143301Y34449D01*
X142901Y34049D01*
X143301D01*
X143701Y33649D01*
X117126Y4121D02*
X117526Y4521D01*
X117926D01*
X117526Y4921D01*
X117926Y5321D01*
X117526D01*
X117126Y5721D01*
X116726Y5321D01*
X116326D01*
X116726Y4921D01*
X116326Y4521D01*
X116726D01*
X117126Y4121D01*
X53150Y20854D02*
X53550Y21253D01*
X53950D01*
X53550Y21654D01*
X53950Y22053D01*
X53550D01*
X53150Y22454D01*
X52750Y22053D01*
X52350D01*
X52750Y21654D01*
X52350Y21253D01*
X52750D01*
X53150Y20854D01*
X62008D02*
X62408Y21253D01*
X62808D01*
X62408Y21654D01*
X62808Y22053D01*
X62408D01*
X62008Y22454D01*
X61608Y22053D01*
X61208D01*
X61608Y21654D01*
X61208Y21253D01*
X61608D01*
X62008Y20854D01*
X91535Y35617D02*
X91935Y36017D01*
X92335D01*
X91935Y36417D01*
X92335Y36817D01*
X91935D01*
X91535Y37217D01*
X91135Y36817D01*
X90735D01*
X91135Y36417D01*
X90735Y36017D01*
X91135D01*
X91535Y35617D01*
X94488D02*
X94888Y36017D01*
X95288D01*
X94888Y36417D01*
X95288Y36817D01*
X94888D01*
X94488Y37217D01*
X94088Y36817D01*
X93688D01*
X94088Y36417D01*
X93688Y36017D01*
X94088D01*
X94488Y35617D01*
X91535Y38570D02*
X91935Y38970D01*
X92335D01*
X91935Y39370D01*
X92335Y39770D01*
X91935D01*
X91535Y40170D01*
X91135Y39770D01*
X90735D01*
X91135Y39370D01*
X90735Y38970D01*
X91135D01*
X91535Y38570D01*
X86614Y16917D02*
X87014Y17316D01*
X87414D01*
X87014Y17717D01*
X87414Y18116D01*
X87014D01*
X86614Y18517D01*
X86214Y18116D01*
X85814D01*
X86214Y17717D01*
X85814Y17316D01*
X86214D01*
X86614Y16917D01*
Y19869D02*
X87014Y20269D01*
X87414D01*
X87014Y20669D01*
X87414Y21069D01*
X87014D01*
X86614Y21469D01*
X86214Y21069D01*
X85814D01*
X86214Y20669D01*
X85814Y20269D01*
X86214D01*
X86614Y19869D01*
Y22822D02*
X87014Y23222D01*
X87414D01*
X87014Y23622D01*
X87414Y24022D01*
X87014D01*
X86614Y24422D01*
X86214Y24022D01*
X85814D01*
X86214Y23622D01*
X85814Y23222D01*
X86214D01*
X86614Y22822D01*
Y25775D02*
X87014Y26175D01*
X87414D01*
X87014Y26575D01*
X87414Y26975D01*
X87014D01*
X86614Y27375D01*
X86214Y26975D01*
X85814D01*
X86214Y26575D01*
X85814Y26175D01*
X86214D01*
X86614Y25775D01*
X71850Y5105D02*
X72250Y5505D01*
X72650D01*
X72250Y5906D01*
X72650Y6306D01*
X72250D01*
X71850Y6706D01*
X71450Y6306D01*
X71050D01*
X71450Y5906D01*
X71050Y5505D01*
X71450D01*
X71850Y5105D01*
X83661D02*
X84061Y5505D01*
X84461D01*
X84061Y5906D01*
X84461Y6306D01*
X84061D01*
X83661Y6706D01*
X83261Y6306D01*
X82861D01*
X83261Y5906D01*
X82861Y5505D01*
X83261D01*
X83661Y5105D01*
X73819Y8058D02*
X74219Y8458D01*
X74619D01*
X74219Y8858D01*
X74619Y9258D01*
X74219D01*
X73819Y9658D01*
X73419Y9258D01*
X73019D01*
X73419Y8858D01*
X73019Y8458D01*
X73419D01*
X73819Y8058D01*
X77756D02*
X78156Y8458D01*
X78556D01*
X78156Y8858D01*
X78556Y9258D01*
X78156D01*
X77756Y9658D01*
X77356Y9258D01*
X76956D01*
X77356Y8858D01*
X76956Y8458D01*
X77356D01*
X77756Y8058D01*
X98425Y54318D02*
X98825Y54718D01*
X99225D01*
X98825Y55118D01*
X99225Y55518D01*
X98825D01*
X98425Y55918D01*
X98025Y55518D01*
X97625D01*
X98025Y55118D01*
X97625Y54718D01*
X98025D01*
X98425Y54318D01*
X102362Y50381D02*
X102762Y50781D01*
X103162D01*
X102762Y51181D01*
X103162Y51581D01*
X102762D01*
X102362Y51981D01*
X101962Y51581D01*
X101562D01*
X101962Y51181D01*
X101562Y50781D01*
X101962D01*
X102362Y50381D01*
X98425D02*
X98825Y50781D01*
X99225D01*
X98825Y51181D01*
X99225Y51581D01*
X98825D01*
X98425Y51981D01*
X98025Y51581D01*
X97625D01*
X98025Y51181D01*
X97625Y50781D01*
X98025D01*
X98425Y50381D01*
X106299D02*
X106699Y50781D01*
X107099D01*
X106699Y51181D01*
X107099Y51581D01*
X106699D01*
X106299Y51981D01*
X105899Y51581D01*
X105499D01*
X105899Y51181D01*
X105499Y50781D01*
X105899D01*
X106299Y50381D01*
X59055Y20854D02*
X59455Y21253D01*
X59855D01*
X59455Y21654D01*
X59855Y22053D01*
X59455D01*
X59055Y22454D01*
X58655Y22053D01*
X58255D01*
X58655Y21654D01*
X58255Y21253D01*
X58655D01*
X59055Y20854D01*
X94488Y38570D02*
X94888Y38970D01*
X95288D01*
X94888Y39370D01*
X95288Y39770D01*
X94888D01*
X94488Y40170D01*
X94088Y39770D01*
X93688D01*
X94088Y39370D01*
X93688Y38970D01*
X94088D01*
X94488Y38570D01*
X146653Y30696D02*
X147054Y31096D01*
X147453D01*
X147054Y31496D01*
X147453Y31896D01*
X147054D01*
X146653Y32296D01*
X146254Y31896D01*
X145853D01*
X146254Y31496D01*
X145853Y31096D01*
X146254D01*
X146653Y30696D01*
X86614Y28728D02*
X87014Y29128D01*
X87414D01*
X87014Y29528D01*
X87414Y29928D01*
X87014D01*
X86614Y30328D01*
X86214Y29928D01*
X85814D01*
X86214Y29528D01*
X85814Y29128D01*
X86214D01*
X86614Y28728D01*
X56102Y20854D02*
X56502Y21253D01*
X56902D01*
X56502Y21654D01*
X56902Y22053D01*
X56502D01*
X56102Y22454D01*
X55702Y22053D01*
X55302D01*
X55702Y21654D01*
X55302Y21253D01*
X55702D01*
X56102Y20854D01*
X143701Y30696D02*
X144101Y31096D01*
X144501D01*
X144101Y31496D01*
X144501Y31896D01*
X144101D01*
X143701Y32296D01*
X143301Y31896D01*
X142901D01*
X143301Y31496D01*
X142901Y31096D01*
X143301D01*
X143701Y30696D01*
X111221Y39554D02*
X111620Y39954D01*
X112021D01*
X111620Y40354D01*
X112021Y40754D01*
X111620D01*
X111221Y41154D01*
X110820Y40754D01*
X110421D01*
X110820Y40354D01*
X110421Y39954D01*
X110820D01*
X111221Y39554D01*
X112205Y17901D02*
X112605Y18301D01*
X113005D01*
X112605Y18701D01*
X113005Y19101D01*
X112605D01*
X112205Y19501D01*
X111805Y19101D01*
X111405D01*
X111805Y18701D01*
X111405Y18301D01*
X111805D01*
X112205Y17901D01*
X123031Y4121D02*
X123432Y4521D01*
X123831D01*
X123432Y4921D01*
X123831Y5321D01*
X123432D01*
X123031Y5721D01*
X122632Y5321D01*
X122231D01*
X122632Y4921D01*
X122231Y4521D01*
X122632D01*
X123031Y4121D01*
X120079D02*
X120479Y4521D01*
X120879D01*
X120479Y4921D01*
X120879Y5321D01*
X120479D01*
X120079Y5721D01*
X119679Y5321D01*
X119279D01*
X119679Y4921D01*
X119279Y4521D01*
X119679D01*
X120079Y4121D01*
X128937Y3137D02*
X129337Y3537D01*
X129737D01*
X129337Y3937D01*
X129737Y4337D01*
X129337D01*
X128937Y4737D01*
X128537Y4337D01*
X128137D01*
X128537Y3937D01*
X128137Y3537D01*
X128537D01*
X128937Y3137D01*
X102362Y54318D02*
X102762Y54718D01*
X103162D01*
X102762Y55118D01*
X103162Y55518D01*
X102762D01*
X102362Y55918D01*
X101962Y55518D01*
X101562D01*
X101962Y55118D01*
X101562Y54718D01*
X101962D01*
X102362Y54318D01*
X106299D02*
X106699Y54718D01*
X107099D01*
X106699Y55118D01*
X107099Y55518D01*
X106699D01*
X106299Y55918D01*
X105899Y55518D01*
X105499D01*
X105899Y55118D01*
X105499Y54718D01*
X105899D01*
X106299Y54318D01*
X98425Y16917D02*
X98825Y17316D01*
X99225D01*
X98825Y17717D01*
X99225Y18116D01*
X98825D01*
X98425Y18517D01*
X98025Y18116D01*
X97625D01*
X98025Y17717D01*
X97625Y17316D01*
X98025D01*
X98425Y16917D01*
X100394Y11995D02*
X100794Y12395D01*
X101194D01*
X100794Y12795D01*
X101194Y13195D01*
X100794D01*
X100394Y13595D01*
X99994Y13195D01*
X99594D01*
X99994Y12795D01*
X99594Y12395D01*
X99994D01*
X100394Y11995D01*
X98425Y13964D02*
X98825Y14364D01*
X99225D01*
X98825Y14764D01*
X99225Y15164D01*
X98825D01*
X98425Y15564D01*
X98025Y15164D01*
X97625D01*
X98025Y14764D01*
X97625Y14364D01*
X98025D01*
X98425Y13964D01*
X48228Y52350D02*
X48628Y52750D01*
X49028D01*
X48628Y53150D01*
X49028Y53550D01*
X48628D01*
X48228Y53950D01*
X47828Y53550D01*
X47428D01*
X47828Y53150D01*
X47428Y52750D01*
X47828D01*
X48228Y52350D01*
Y49397D02*
X48628Y49797D01*
X49028D01*
X48628Y50197D01*
X49028Y50597D01*
X48628D01*
X48228Y50997D01*
X47828Y50597D01*
X47428D01*
X47828Y50197D01*
X47428Y49797D01*
X47828D01*
X48228Y49397D01*
X45276D02*
X45676Y49797D01*
X46076D01*
X45676Y50197D01*
X46076Y50597D01*
X45676D01*
X45276Y50997D01*
X44876Y50597D01*
X44476D01*
X44876Y50197D01*
X44476Y49797D01*
X44876D01*
X45276Y49397D01*
Y52350D02*
X45676Y52750D01*
X46076D01*
X45676Y53150D01*
X46076Y53550D01*
X45676D01*
X45276Y53950D01*
X44876Y53550D01*
X44476D01*
X44876Y53150D01*
X44476Y52750D01*
X44876D01*
X45276Y52350D01*
Y55302D02*
X45676Y55702D01*
X46076D01*
X45676Y56102D01*
X46076Y56502D01*
X45676D01*
X45276Y56902D01*
X44876Y56502D01*
X44476D01*
X44876Y56102D01*
X44476Y55702D01*
X44876D01*
X45276Y55302D01*
X48228D02*
X48628Y55702D01*
X49028D01*
X48628Y56102D01*
X49028Y56502D01*
X48628D01*
X48228Y56902D01*
X47828Y56502D01*
X47428D01*
X47828Y56102D01*
X47428Y55702D01*
X47828D01*
X48228Y55302D01*
X79724Y5105D02*
X80124Y5505D01*
X80524D01*
X80124Y5906D01*
X80524Y6306D01*
X80124D01*
X79724Y6706D01*
X79324Y6306D01*
X78924D01*
X79324Y5906D01*
X78924Y5505D01*
X79324D01*
X79724Y5105D01*
X77756Y11011D02*
X78156Y11411D01*
X78556D01*
X78156Y11811D01*
X78556Y12211D01*
X78156D01*
X77756Y12611D01*
X77356Y12211D01*
X76956D01*
X77356Y11811D01*
X76956Y11411D01*
X77356D01*
X77756Y11011D01*
X75787Y5105D02*
X76187Y5505D01*
X76587D01*
X76187Y5906D01*
X76587Y6306D01*
X76187D01*
X75787Y6706D01*
X75387Y6306D01*
X74987D01*
X75387Y5906D01*
X74987Y5505D01*
X75387D01*
X75787Y5105D01*
X116865Y23939D02*
X117265Y24339D01*
X117665D01*
X117265Y24739D01*
X117665Y25139D01*
X117265D01*
X116865Y25539D01*
X116465Y25139D01*
X116065D01*
X116465Y24739D01*
X116065Y24339D01*
X116465D01*
X116865Y23939D01*
X56496Y9141D02*
X56896Y9541D01*
X57296D01*
X56896Y9941D01*
X57296Y10341D01*
X56896D01*
X56496Y10741D01*
X56096Y10341D01*
X55696D01*
X56096Y9941D01*
X55696Y9541D01*
X56096D01*
X56496Y9141D01*
X41732Y8157D02*
X42132Y8557D01*
X42532D01*
X42132Y8957D01*
X42532Y9357D01*
X42132D01*
X41732Y9757D01*
X41332Y9357D01*
X40932D01*
X41332Y8957D01*
X40932Y8557D01*
X41332D01*
X41732Y8157D01*
X123721Y14554D02*
X124120Y14954D01*
X124521D01*
X124120Y15354D01*
X124521Y15754D01*
X124120D01*
X123721Y16154D01*
X123320Y15754D01*
X122921D01*
X123320Y15354D01*
X122921Y14954D01*
X123320D01*
X123721Y14554D01*
X95866Y9633D02*
X96266Y10033D01*
X96666D01*
X96266Y10433D01*
X96666Y10833D01*
X96266D01*
X95866Y11233D01*
X95466Y10833D01*
X95066D01*
X95466Y10433D01*
X95066Y10033D01*
X95466D01*
X95866Y9633D01*
Y7980D02*
X96266Y8380D01*
X96666D01*
X96266Y8779D01*
X96666Y9179D01*
X96266D01*
X95866Y9579D01*
X95466Y9179D01*
X95066D01*
X95466Y8779D01*
X95066Y8380D01*
X95466D01*
X95866Y7980D01*
X109252Y3629D02*
X109652Y4029D01*
X110052D01*
X109652Y4429D01*
X110052Y4829D01*
X109652D01*
X109252Y5229D01*
X108852Y4829D01*
X108452D01*
X108852Y4429D01*
X108452Y4029D01*
X108852D01*
X109252Y3629D01*
X102559Y6483D02*
X102959Y6883D01*
X103359D01*
X102959Y7283D01*
X103359Y7683D01*
X102959D01*
X102559Y8083D01*
X102159Y7683D01*
X101759D01*
X102159Y7283D01*
X101759Y6883D01*
X102159D01*
X102559Y6483D01*
X125492Y23117D02*
X125892Y23517D01*
X126292D01*
X125892Y23917D01*
X126292Y24317D01*
X125892D01*
X125492Y24717D01*
X125092Y24317D01*
X124692D01*
X125092Y23917D01*
X124692Y23517D01*
X125092D01*
X125492Y23117D01*
X127362Y25755D02*
X127762Y26155D01*
X128162D01*
X127762Y26555D01*
X128162Y26955D01*
X127762D01*
X127362Y27355D01*
X126962Y26955D01*
X126562D01*
X126962Y26555D01*
X126562Y26155D01*
X126962D01*
X127362Y25755D01*
X108956Y17212D02*
X109356Y17613D01*
X109756D01*
X109356Y18012D01*
X109756Y18413D01*
X109356D01*
X108956Y18812D01*
X108556Y18413D01*
X108156D01*
X108556Y18012D01*
X108156Y17613D01*
X108556D01*
X108956Y17212D01*
X61910Y17999D02*
X62309Y18399D01*
X62709D01*
X62309Y18799D01*
X62709Y19199D01*
X62309D01*
X61910Y19599D01*
X61510Y19199D01*
X61110D01*
X61510Y18799D01*
X61110Y18399D01*
X61510D01*
X61910Y17999D01*
X59055Y36602D02*
X59455Y37002D01*
X59855D01*
X59455Y37402D01*
X59855Y37802D01*
X59455D01*
X59055Y38202D01*
X58655Y37802D01*
X58255D01*
X58655Y37402D01*
X58255Y37002D01*
X58655D01*
X59055Y36602D01*
X62992D02*
X63392Y37002D01*
X63792D01*
X63392Y37402D01*
X63792Y37802D01*
X63392D01*
X62992Y38202D01*
X62592Y37802D01*
X62192D01*
X62592Y37402D01*
X62192Y37002D01*
X62592D01*
X62992Y36602D01*
X76452Y26178D02*
X76852Y26578D01*
X77252D01*
X76852Y26978D01*
X77252Y27378D01*
X76852D01*
X76452Y27778D01*
X76052Y27378D01*
X75652D01*
X76052Y26978D01*
X75652Y26578D01*
X76052D01*
X76452Y26178D01*
X75590Y37783D02*
X75990Y38183D01*
X76390D01*
X75990Y38583D01*
X76390Y38983D01*
X75990D01*
X75590Y39383D01*
X75191Y38983D01*
X74791D01*
X75191Y38583D01*
X74791Y38183D01*
X75191D01*
X75590Y37783D01*
X77658Y37684D02*
X78057Y38084D01*
X78457D01*
X78057Y38484D01*
X78457Y38884D01*
X78057D01*
X77658Y39284D01*
X77258Y38884D01*
X76858D01*
X77258Y38484D01*
X76858Y38084D01*
X77258D01*
X77658Y37684D01*
X64961Y35617D02*
X65361Y36017D01*
X65761D01*
X65361Y36417D01*
X65761Y36817D01*
X65361D01*
X64961Y37217D01*
X64561Y36817D01*
X64161D01*
X64561Y36417D01*
X64161Y36017D01*
X64561D01*
X64961Y35617D01*
X105315Y42507D02*
X105715Y42907D01*
X106115D01*
X105715Y43307D01*
X106115Y43707D01*
X105715D01*
X105315Y44107D01*
X104915Y43707D01*
X104515D01*
X104915Y43307D01*
X104515Y42907D01*
X104915D01*
X105315Y42507D01*
X103347Y40539D02*
X103746Y40939D01*
X104147D01*
X103746Y41339D01*
X104147Y41739D01*
X103746D01*
X103347Y42139D01*
X102946Y41739D01*
X102547D01*
X102946Y41339D01*
X102547Y40939D01*
X102946D01*
X103347Y40539D01*
X101378Y42507D02*
X101778Y42907D01*
X102178D01*
X101778Y43307D01*
X102178Y43707D01*
X101778D01*
X101378Y44107D01*
X100978Y43707D01*
X100578D01*
X100978Y43307D01*
X100578Y42907D01*
X100978D01*
X101378Y42507D01*
X110335Y28109D02*
X110735Y28509D01*
X111135D01*
X110735Y28909D01*
X111135Y29309D01*
X110735D01*
X110335Y29709D01*
X109935Y29309D01*
X109535D01*
X109935Y28909D01*
X109535Y28509D01*
X109935D01*
X110335Y28109D01*
Y30246D02*
X110735Y30646D01*
X111135D01*
X110735Y31046D01*
X111135Y31446D01*
X110735D01*
X110335Y31846D01*
X109935Y31446D01*
X109535D01*
X109935Y31046D01*
X109535Y30646D01*
X109935D01*
X110335Y30246D01*
X125984Y32665D02*
X126384Y33065D01*
X126784D01*
X126384Y33465D01*
X126784Y33865D01*
X126384D01*
X125984Y34265D01*
X125584Y33865D01*
X125184D01*
X125584Y33465D01*
X125184Y33065D01*
X125584D01*
X125984Y32665D01*
Y34633D02*
X126384Y35033D01*
X126784D01*
X126384Y35433D01*
X126784Y35833D01*
X126384D01*
X125984Y36233D01*
X125584Y35833D01*
X125184D01*
X125584Y35433D01*
X125184Y35033D01*
X125584D01*
X125984Y34633D01*
X134884Y36320D02*
X135284Y36720D01*
X135684D01*
X135284Y37120D01*
X135684Y37520D01*
X135284D01*
X134884Y37920D01*
X134484Y37520D01*
X134084D01*
X134484Y37120D01*
X134084Y36720D01*
X134484D01*
X134884Y36320D01*
X57480Y49200D02*
X57880Y49600D01*
X58280D01*
X57880Y50000D01*
X58280Y50400D01*
X57880D01*
X57480Y50800D01*
X57080Y50400D01*
X56680D01*
X57080Y50000D01*
X56680Y49600D01*
X57080D01*
X57480Y49200D01*
X108563Y20460D02*
X108963Y20860D01*
X109363D01*
X108963Y21260D01*
X109363Y21660D01*
X108963D01*
X108563Y22060D01*
X108163Y21660D01*
X107763D01*
X108163Y21260D01*
X107763Y20860D01*
X108163D01*
X108563Y20460D01*
X124942Y44909D02*
X125342Y45309D01*
X125742D01*
X125342Y45709D01*
X125742Y46109D01*
X125342D01*
X124942Y46509D01*
X124542Y46109D01*
X124142D01*
X124542Y45709D01*
X124142Y45309D01*
X124542D01*
X124942Y44909D01*
X117087D02*
X117487Y45309D01*
X117887D01*
X117487Y45709D01*
X117887Y46109D01*
X117487D01*
X117087Y46509D01*
X116687Y46109D01*
X116287D01*
X116687Y45709D01*
X116287Y45309D01*
X116687D01*
X117087Y44909D01*
X34449Y52350D02*
X34849Y52750D01*
X35249D01*
X34849Y53150D01*
X35249Y53550D01*
X34849D01*
X34449Y53950D01*
X34049Y53550D01*
X33649D01*
X34049Y53150D01*
X33649Y52750D01*
X34049D01*
X34449Y52350D01*
X40351Y51362D02*
X40751Y51762D01*
X41151D01*
X40751Y52162D01*
X41151Y52562D01*
X40751D01*
X40351Y52962D01*
X39951Y52562D01*
X39551D01*
X39951Y52162D01*
X39551Y51762D01*
X39951D01*
X40351Y51362D01*
X63386Y54712D02*
X63786Y55112D01*
X64186D01*
X63786Y55512D01*
X64186Y55912D01*
X63786D01*
X63386Y56312D01*
X62986Y55912D01*
X62586D01*
X62986Y55512D01*
X62586Y55112D01*
X62986D01*
X63386Y54712D01*
X62992Y53137D02*
X63392Y53537D01*
X63792D01*
X63392Y53937D01*
X63792Y54337D01*
X63392D01*
X62992Y54737D01*
X62592Y54337D01*
X62192D01*
X62592Y53937D01*
X62192Y53537D01*
X62592D01*
X62992Y53137D01*
X141732Y4909D02*
X142132Y5309D01*
X142532D01*
X142132Y5709D01*
X142532Y6109D01*
X142132D01*
X141732Y6509D01*
X141332Y6109D01*
X140932D01*
X141332Y5709D01*
X140932Y5309D01*
X141332D01*
X141732Y4909D01*
X144468Y18865D02*
X144869Y19265D01*
X145268D01*
X144869Y19665D01*
X145268Y20065D01*
X144869D01*
X144468Y20465D01*
X144069Y20065D01*
X143668D01*
X144069Y19665D01*
X143668Y19265D01*
X144069D01*
X144468Y18865D01*
X145965Y16720D02*
X146365Y17120D01*
X146765D01*
X146365Y17520D01*
X146765Y17920D01*
X146365D01*
X145965Y18320D01*
X145565Y17920D01*
X145165D01*
X145565Y17520D01*
X145165Y17120D01*
X145565D01*
X145965Y16720D01*
X144488Y11798D02*
X144888Y12198D01*
X145288D01*
X144888Y12598D01*
X145288Y12998D01*
X144888D01*
X144488Y13398D01*
X144088Y12998D01*
X143688D01*
X144088Y12598D01*
X143688Y12198D01*
X144088D01*
X144488Y11798D01*
X108563Y34239D02*
X108963Y34639D01*
X109363D01*
X108963Y35039D01*
X109363Y35439D01*
X108963D01*
X108563Y35839D01*
X108163Y35439D01*
X107763D01*
X108163Y35039D01*
X107763Y34639D01*
X108163D01*
X108563Y34239D01*
D64*
X20485Y36220D02*
G03*
X20485Y36220I-800J0D01*
G01*
Y18898D02*
G03*
X20485Y18898I-800J0D01*
G01*
M02*
