M48
;Layer_Color=9474304
;FILE_FORMAT=2:5
INCH,LZ
;TYPE=PLATED
T1F00S00C0.00591
T2F00S00C0.04134
;TYPE=NON_PLATED
T3F00S00C0.03543
%
T01
X007185Y0005906
X0075787
X0079724
X0083661
X0102559Y0007283
X0109252Y0004429
X0117126Y0004921
X0120079
X0123031
X0128937Y0003937
X0141732Y0005709
X0144488Y0012598
X0145965Y001752
X0144468Y0019665
X0143701Y0031496
X0146653
Y0034449
X0143701
X0134884Y003712
X0125984Y0035433
Y0033465
X0127362Y0026555
X0125492Y0023917
X0116865Y0024739
X0112205Y0018701
X0108956Y0018012
X0108563Y002126
X0110335Y0028909
Y0031046
X0108563Y0035039
X0111221Y0040354
X0103347Y0041339
X0105315Y0043307
X0101378
X0102362Y0051181
X0098425
Y0055118
X0102362
X0106299
Y0051181
X0117087Y0045709
X0124942
X0123721Y0015354
X0100394Y0012795
X0098425Y0014764
Y0017717
X0095866Y0010433
Y0008779
X0077756Y0008858
Y0011811
X0073819Y0008858
X0056496Y0009941
X0056102Y0021654
X005315
X0059055
X0062008
X006191Y0018799
X0065059Y0020669
X0064961Y0036417
X0062992Y0037402
X0059055
X005748Y005
X0048228Y0050197
Y005315
Y0056102
X0045276
Y005315
Y0050197
X0040351Y0052162
X0034449Y005315
X0062992Y0053937
X0063386Y0055512
X007559Y0038583
X0077658Y0038484
X0076452Y0026978
X0086614Y0026575
Y0023622
Y0020669
Y0017717
Y0029528
X0091535Y0036417
X0094488
Y003937
X0091535
X0041732Y0008957
T02
X0079646Y005315
X0089646
X0111772
X0121772
X0131772
X0141772
X015315Y0050276
X016315
Y0040276
Y0030276
Y0020276
Y0010276
X015315
Y0020276
Y0030276
Y0040276
T03
X0019685Y0018898
Y003622
M30
